<svg width="112" height="15" viewBox="0 0 112 15" fill="none" xmlns="http://www.w3.org/2000/svg">
<path d="M0.685547 7.26888C0.685547 2.61342 4.82983 0 9.57099 0C13.4727 0 16.4774 1.96954 17.6158 4.49422L14.443 5.67594C13.5652 4.20745 12.016 2.99001 9.57099 2.99001C6.62159 2.99001 4.27019 4.63707 4.27019 7.3587C4.27019 10.6885 7.51859 11.5661 9.88917 11.5661C12.2598 11.5661 14.1079 10.8324 14.5367 9.43537H10.0189V6.85766H17.9713V14.2521H15.3581L15.1719 12.5152H15.0602C13.8101 13.8582 11.8874 14.5562 9.27312 14.5562C4.26906 14.5551 0.685547 11.5294 0.685547 7.26888Z" fill="#111111"/>
<path d="M19.9355 7.28674C19.9355 2.95452 23.996 0 28.9713 0C33.9465 0 38.007 2.99024 38.007 7.28674C38.007 11.5832 34.0042 14.5562 28.9713 14.5562C23.9384 14.5562 19.9355 11.62 19.9355 7.28674ZM28.9897 11.5659C32.02 11.5659 34.3083 9.74018 34.3083 7.28674C34.3083 4.8333 32.0776 2.98915 28.9897 2.98915C25.9017 2.98915 23.6146 4.79758 23.6146 7.28674C23.6146 9.7759 26.017 11.5659 28.9897 11.5659Z" fill="#111111"/>
<path d="M38.008 3.27123V0.363892H52.1497V3.27123H46.8248V14.1922H43.3317V3.27123H38.0068H38.008Z" fill="#111111"/>
<path d="M52.6855 7.198C52.6855 2.43505 57.0531 0 61.6654 0C65.4867 0 68.5365 1.86254 69.761 4.49455L66.561 5.67636C65.695 4.20776 64.0756 2.99024 61.6096 2.99024C58.578 2.99024 56.3009 4.70884 56.3009 7.35925C56.3009 10.5281 59.3132 11.567 61.8736 11.567C64.4341 11.567 66.2605 10.6536 67.1448 8.50534L70.3641 9.5075C68.9143 13.2142 65.6392 14.5562 61.8361 14.5562C56.5456 14.5562 52.6867 11.6558 52.6867 7.198H52.6855Z" fill="#111111"/>
<path d="M72.1855 0.363892H75.619V5.8603H83.2878V0.363892H86.7213V14.1922H83.2878V8.92731H75.619V14.1922H72.1855V0.363892Z" fill="#111111"/>
<path d="M95.0731 0.363892H99.1914L105.972 14.1922H102.236L100.57 11.0363H93.6177L91.9516 14.1922H88.293L95.0731 0.363892ZM99.0004 7.96927C98.3682 6.74547 97.7557 5.48737 97.1236 4.17569H97.0657C96.4335 5.48737 95.821 6.74654 95.1889 7.96927H99.0004Z" fill="#111111"/>
<path d="M109.394 10.6914C110.426 10.6914 111.366 11.5091 111.366 12.4892C111.366 13.5417 110.481 14.3781 109.394 14.3781C108.307 14.3781 107.386 13.5428 107.386 12.4892C107.386 11.5091 108.289 10.6914 109.394 10.6914Z" fill="#111111"/>
<path d="M107.689 0H111.119L111.023 9.29043H107.791L107.689 0Z" fill="#111111"/>
</svg>
