<svg width="390" height="839" viewBox="0 0 390 839" fill="none" xmlns="http://www.w3.org/2000/svg">
<g clip-path="url(#clip0_457_2696)">
<g clip-path="url(#clip1_457_2696)">
<path d="M37.2822 788.852L37.6738 788.987L37.8793 788.627C39.9977 784.92 42.2335 781.925 44.2475 780.013C45.256 779.056 46.188 778.391 47.0024 778.035C47.8173 777.678 48.4555 777.655 48.9403 777.875C49.4258 778.095 49.8303 778.591 50.1012 779.438C50.372 780.284 50.4879 781.423 50.4342 782.811C50.3271 785.584 49.5487 789.24 48.1459 793.281L48.0097 793.673L48.3702 793.879C52.0773 795.997 55.0667 798.235 56.9754 800.251C57.9312 801.26 58.5963 802.192 58.9535 803.007C59.3112 803.823 59.3366 804.461 59.1212 804.944C58.9066 805.425 58.4171 805.827 57.5729 806.097C56.7295 806.367 55.5924 806.482 54.2037 806.428C51.4304 806.321 47.7694 805.544 43.7173 804.145L43.3255 804.01L43.1199 804.37C41.0019 808.077 38.764 811.067 36.7489 812.975C35.74 813.931 34.8074 814.596 33.9928 814.953C33.1771 815.311 32.5391 815.336 32.0563 815.121C31.5751 814.906 31.1727 814.417 30.9029 813.573C30.6332 812.729 30.5178 811.592 30.5714 810.203C30.6786 807.43 31.4549 803.768 32.8537 799.716L32.9889 799.324L32.6291 799.119C28.9216 797 25.9265 794.764 24.015 792.75C23.0579 791.741 22.3925 790.809 22.0365 789.994C21.6806 789.18 21.6571 788.542 21.8762 788.058C22.0977 787.578 22.594 787.177 23.4424 786.908C24.2905 786.64 25.4302 786.526 26.8189 786.579C29.5924 786.687 33.2458 787.46 37.2822 788.852Z" fill="#FCC605" stroke="black"/>
<path d="M366.181 373.209L366.5 373.473L366.819 373.209C370.107 370.484 373.254 368.468 375.813 367.388C377.093 366.848 378.2 366.553 379.088 366.506C379.976 366.46 380.581 366.663 380.958 367.04C381.334 367.417 381.539 368.023 381.494 368.911C381.449 369.798 381.157 370.905 380.618 372.186C379.541 374.744 377.525 377.891 374.79 381.179L374.524 381.498L374.789 381.818C377.513 385.106 379.523 388.253 380.6 390.811C381.139 392.092 381.433 393.2 381.48 394.088C381.528 394.977 381.327 395.584 380.955 395.96C380.585 396.334 379.985 396.539 379.1 396.494C378.216 396.449 377.111 396.157 375.83 395.618C373.272 394.541 370.119 392.525 366.819 389.789L366.5 389.524L366.181 389.788C362.893 392.512 359.746 394.523 357.188 395.6C355.907 396.139 354.8 396.433 353.912 396.48C353.022 396.528 352.416 396.327 352.04 395.955C351.666 395.585 351.461 394.985 351.506 394.1C351.551 393.216 351.843 392.11 352.382 390.83C353.459 388.271 355.475 385.118 358.211 381.818L358.475 381.499L358.211 381.18C355.487 377.891 353.471 374.744 352.391 372.185C351.85 370.904 351.556 369.798 351.509 368.91C351.463 368.022 351.666 367.417 352.041 367.041C352.417 366.67 353.023 366.469 353.912 366.517C354.8 366.564 355.907 366.858 357.188 367.398C359.746 368.475 362.893 370.485 366.181 373.209Z" fill="#FC842E" stroke="black"/>
<path d="M359.855 213.129C360.485 212.993 360.606 211.379 360.726 209.775C360.838 208.267 360.951 206.767 361.485 206.512C362.038 206.241 363.312 207.108 364.581 207.97C365.897 208.865 367.206 209.755 367.694 209.365C368.185 208.96 367.602 207.473 367.018 205.988C366.462 204.571 365.906 203.155 366.28 202.676L359.855 213.129ZM359.855 213.129C359.246 213.263 358.465 211.902 357.677 210.529C356.912 209.197 356.141 207.854 355.515 207.854C354.89 207.854 354.119 209.197 353.354 210.529C352.566 211.902 351.784 213.263 351.176 213.129H359.855ZM367.413 208.957C367.413 208.957 367.412 208.957 367.41 208.958C367.412 208.957 367.413 208.957 367.413 208.957ZM367.369 208.959C367.351 208.958 367.326 208.955 367.292 208.949C367.154 208.922 366.959 208.849 366.705 208.72C366.2 208.462 365.587 208.05 364.934 207.606L364.851 207.55C364.238 207.133 363.595 206.696 363.033 206.393C362.739 206.234 362.442 206.099 362.166 206.025C361.902 205.954 361.57 205.914 361.267 206.062C360.964 206.207 360.792 206.495 360.688 206.742C360.577 207.003 360.501 207.318 360.444 207.645C360.338 208.256 360.281 209.008 360.228 209.73C360.224 209.78 360.22 209.831 360.216 209.882C360.157 210.668 360.097 211.402 359.981 211.955C359.923 212.233 359.857 212.43 359.791 212.553C359.773 212.586 359.758 212.609 359.746 212.624C359.729 212.615 359.706 212.6 359.676 212.578C359.563 212.493 359.42 212.342 359.249 212.115C358.908 211.663 358.538 211.025 358.146 210.341L358.103 210.268C357.733 209.622 357.343 208.944 356.966 208.422C356.77 208.152 356.562 207.901 356.344 207.713C356.135 207.533 355.853 207.354 355.515 207.354C355.178 207.354 354.895 207.533 354.687 207.713C354.469 207.901 354.261 208.152 354.065 208.422C353.687 208.944 353.298 209.622 352.927 210.268L352.885 210.341C352.492 211.025 352.123 211.663 351.782 212.115C351.611 212.342 351.467 212.493 351.355 212.578C351.326 212.599 351.304 212.613 351.287 212.622C351.275 212.606 351.26 212.582 351.241 212.548C351.174 212.422 351.108 212.224 351.05 211.945C350.934 211.391 350.873 210.657 350.814 209.873C350.811 209.823 350.807 209.773 350.803 209.722C350.749 209.002 350.693 208.252 350.586 207.641C350.529 207.315 350.453 207.001 350.342 206.74C350.238 206.494 350.066 206.207 349.763 206.062C349.461 205.914 349.129 205.954 348.866 206.025C348.589 206.099 348.294 206.235 348.001 206.393C347.443 206.694 346.806 207.128 346.198 207.543C346.167 207.564 346.136 207.585 346.105 207.606C345.454 208.05 344.842 208.462 344.336 208.719C344.082 208.848 343.886 208.922 343.746 208.949C343.704 208.956 343.675 208.959 343.655 208.959C343.651 208.941 343.647 208.914 343.646 208.876C343.64 208.736 343.667 208.531 343.736 208.255C343.873 207.707 344.138 207.019 344.428 206.284C344.444 206.243 344.461 206.201 344.477 206.159C344.745 205.479 345.025 204.769 345.196 204.164C345.287 203.842 345.355 203.524 345.369 203.238C345.382 202.966 345.352 202.633 345.145 202.368L345.145 202.368L345.141 202.363C344.931 202.101 344.613 201.997 344.347 201.949C344.068 201.899 343.744 201.895 343.412 201.912C342.79 201.943 342.043 202.055 341.325 202.162C341.277 202.17 341.228 202.177 341.179 202.184C340.4 202.301 339.669 202.405 339.101 202.415C338.816 202.42 338.608 202.4 338.47 202.363C338.431 202.352 338.405 202.342 338.386 202.334C338.391 202.316 338.4 202.292 338.414 202.26C338.471 202.131 338.586 201.958 338.768 201.74C339.13 201.307 339.668 200.804 340.245 200.267L340.311 200.206C340.855 199.7 341.427 199.169 341.851 198.684C342.072 198.432 342.27 198.173 342.406 197.918C342.535 197.675 342.648 197.361 342.579 197.034L342.579 197.034L342.578 197.03C342.505 196.7 342.264 196.467 342.045 196.309C341.816 196.142 341.526 195.998 341.22 195.87C340.65 195.631 339.933 195.411 339.244 195.199C339.193 195.183 339.143 195.168 339.093 195.152C338.34 194.921 337.638 194.699 337.124 194.462C336.866 194.343 336.687 194.234 336.581 194.141C336.544 194.109 336.523 194.085 336.511 194.069C336.523 194.053 336.544 194.029 336.581 193.997C336.687 193.903 336.866 193.795 337.124 193.676C337.638 193.439 338.34 193.217 339.093 192.985C339.143 192.97 339.193 192.955 339.244 192.939C339.933 192.727 340.65 192.507 341.22 192.268C341.526 192.14 341.816 191.995 342.045 191.829C342.263 191.672 342.503 191.44 342.577 191.111C342.653 190.783 342.541 190.469 342.413 190.228C342.279 189.975 342.081 189.717 341.861 189.466C341.441 188.988 340.874 188.463 340.332 187.961C340.306 187.937 340.28 187.913 340.254 187.888C339.675 187.352 339.136 186.847 338.771 186.411C338.588 186.192 338.473 186.018 338.415 185.887C338.399 185.851 338.39 185.824 338.385 185.805C338.403 185.796 338.43 185.787 338.468 185.776C338.605 185.739 338.812 185.72 339.096 185.726C339.662 185.738 340.39 185.844 341.169 185.962C341.209 185.968 341.248 185.974 341.288 185.98C342.012 186.09 342.771 186.206 343.403 186.236C343.736 186.253 344.061 186.247 344.343 186.195C344.613 186.145 344.929 186.038 345.14 185.776L345.14 185.776L345.145 185.77C345.351 185.506 345.383 185.174 345.37 184.902C345.357 184.617 345.29 184.299 345.2 183.978C345.03 183.371 344.75 182.659 344.482 181.977C344.467 181.939 344.452 181.901 344.437 181.863C344.149 181.13 343.884 180.442 343.745 179.892C343.676 179.616 343.648 179.408 343.653 179.265C343.654 179.226 343.658 179.199 343.661 179.179C343.68 179.18 343.705 179.183 343.738 179.189C343.877 179.216 344.072 179.289 344.326 179.418C344.831 179.676 345.444 180.088 346.097 180.532C346.124 180.551 346.152 180.57 346.179 180.588C346.792 181.005 347.435 181.442 347.998 181.745C348.292 181.904 348.588 182.039 348.865 182.113C349.128 182.184 349.461 182.224 349.763 182.076C350.066 181.93 350.238 181.643 350.343 181.396C350.453 181.135 350.529 180.82 350.586 180.493C350.693 179.881 350.749 179.13 350.803 178.408C350.807 178.357 350.811 178.307 350.814 178.256C350.873 177.47 350.934 176.736 351.05 176.183C351.108 175.905 351.174 175.708 351.24 175.585C351.258 175.552 351.273 175.529 351.284 175.514C351.301 175.523 351.324 175.537 351.355 175.56C351.467 175.645 351.611 175.796 351.782 176.023C352.123 176.475 352.492 177.113 352.885 177.796C352.899 177.821 352.913 177.845 352.927 177.87C353.298 178.516 353.687 179.194 354.065 179.715C354.261 179.986 354.469 180.237 354.687 180.425C354.895 180.605 355.178 180.784 355.515 180.784C355.853 180.784 356.135 180.605 356.344 180.425C356.562 180.237 356.77 179.986 356.966 179.715C357.343 179.194 357.733 178.515 358.103 177.87L358.146 177.796C358.538 177.113 358.908 176.475 359.249 176.023C359.42 175.796 359.563 175.645 359.676 175.56C359.705 175.539 359.727 175.525 359.743 175.516C359.755 175.532 359.771 175.555 359.79 175.59C359.857 175.716 359.923 175.914 359.981 176.193C360.097 176.747 360.157 177.481 360.216 178.265C360.22 178.315 360.224 178.365 360.227 178.415C360.281 179.136 360.338 179.886 360.444 180.496C360.502 180.823 360.578 181.137 360.688 181.397C360.793 181.644 360.965 181.931 361.267 182.076C361.57 182.224 361.902 182.184 362.165 182.113C362.441 182.039 362.737 181.903 363.03 181.745C363.588 181.444 364.225 181.009 364.833 180.595C364.864 180.574 364.894 180.553 364.925 180.532C365.577 180.088 366.189 179.676 366.695 179.419C366.949 179.289 367.145 179.216 367.285 179.189C367.326 179.181 367.356 179.179 367.376 179.178C367.38 179.197 367.383 179.224 367.385 179.262C367.391 179.402 367.364 179.607 367.295 179.883C367.158 180.431 366.892 181.119 366.603 181.853C366.586 181.895 366.57 181.937 366.553 181.979C366.285 182.659 366.006 183.369 365.834 183.974C365.743 184.295 365.675 184.614 365.661 184.9C365.648 185.172 365.679 185.505 365.886 185.77L365.886 185.77L365.889 185.774C366.1 186.037 366.418 186.141 366.683 186.189C366.963 186.238 367.287 186.243 367.619 186.226C368.24 186.195 368.988 186.083 369.705 185.975C369.754 185.968 369.803 185.961 369.851 185.954C370.631 185.837 371.362 185.733 371.929 185.723C372.214 185.717 372.423 185.737 372.561 185.775C372.599 185.785 372.626 185.796 372.644 185.804C372.639 185.822 372.631 185.846 372.617 185.878C372.56 186.007 372.445 186.18 372.263 186.398C371.9 186.831 371.363 187.334 370.785 187.871L370.719 187.932C370.175 188.438 369.603 188.969 369.179 189.454C368.959 189.706 368.76 189.965 368.625 190.22C368.495 190.463 368.383 190.776 368.452 191.104L368.453 191.108C368.525 191.438 368.767 191.671 368.985 191.829C369.215 191.995 369.505 192.14 369.81 192.268C370.38 192.507 371.098 192.727 371.787 192.939C371.837 192.955 371.888 192.97 371.938 192.985C372.69 193.217 373.393 193.439 373.907 193.676C374.165 193.795 374.343 193.903 374.45 193.997C374.486 194.029 374.507 194.053 374.519 194.069C374.507 194.085 374.486 194.109 374.45 194.141C374.343 194.234 374.165 194.343 373.907 194.462C373.393 194.699 372.69 194.921 371.938 195.152C371.888 195.168 371.837 195.183 371.787 195.199C371.098 195.411 370.38 195.631 369.81 195.87C369.505 195.998 369.215 196.142 368.985 196.309C368.768 196.466 368.527 196.698 368.454 197.027C368.378 197.354 368.49 197.669 368.618 197.91C368.752 198.163 368.95 198.421 369.17 198.671C369.589 199.149 370.157 199.675 370.698 200.177C370.724 200.201 370.751 200.225 370.777 200.249C371.356 200.786 371.895 201.291 372.259 201.727C372.442 201.945 372.558 202.12 372.615 202.251C372.631 202.287 372.64 202.314 372.645 202.333C372.627 202.341 372.601 202.351 372.563 202.362C372.426 202.399 372.218 202.418 371.934 202.412C371.368 202.4 370.64 202.294 369.861 202.175C369.822 202.169 369.782 202.163 369.743 202.157C369.018 202.047 368.26 201.932 367.628 201.901C367.295 201.885 366.969 201.891 366.687 201.943C366.418 201.993 366.101 202.1 365.89 202.362L365.89 202.362L365.886 202.368C365.68 202.632 365.648 202.964 365.66 203.236C365.673 203.521 365.741 203.839 365.831 204.159C366.001 204.767 366.281 205.479 366.549 206.16C366.564 206.199 366.579 206.237 366.594 206.275C366.882 207.008 367.147 207.696 367.285 208.246C367.355 208.522 367.383 208.73 367.378 208.873C367.376 208.911 367.373 208.939 367.369 208.959ZM372.652 202.372C372.651 202.372 372.651 202.371 372.652 202.37C372.652 202.371 372.652 202.372 372.652 202.372ZM372.677 202.315C372.678 202.314 372.679 202.314 372.679 202.314C372.679 202.314 372.678 202.314 372.677 202.315ZM374.534 194.093C374.534 194.093 374.534 194.092 374.533 194.091C374.534 194.092 374.534 194.093 374.534 194.093ZM374.533 194.047C374.534 194.046 374.534 194.045 374.534 194.045C374.534 194.045 374.534 194.046 374.533 194.047ZM372.652 185.766C372.652 185.765 372.652 185.764 372.652 185.764C372.652 185.764 372.652 185.765 372.652 185.766ZM372.679 185.824C372.679 185.824 372.678 185.823 372.677 185.822C372.678 185.823 372.679 185.824 372.679 185.824ZM367.411 179.181C367.411 179.181 367.411 179.181 367.409 179.181C367.411 179.181 367.411 179.181 367.411 179.181ZM367.367 179.147C367.366 179.145 367.365 179.144 367.365 179.144C367.365 179.144 367.366 179.145 367.367 179.147ZM359.781 175.499C359.781 175.499 359.78 175.5 359.779 175.5L359.781 175.499ZM359.718 175.488C359.716 175.487 359.716 175.486 359.716 175.486C359.716 175.486 359.716 175.487 359.718 175.488ZM351.31 175.487C351.31 175.487 351.309 175.487 351.308 175.488C351.309 175.487 351.31 175.487 351.31 175.487ZM351.252 175.5C351.25 175.5 351.249 175.499 351.249 175.499L351.252 175.5ZM343.673 179.138C343.673 179.138 343.673 179.139 343.672 179.14C343.673 179.139 343.673 179.138 343.673 179.138ZM343.621 179.18C343.619 179.181 343.618 179.181 343.618 179.181C343.618 179.181 343.619 179.18 343.621 179.18ZM338.379 185.766C338.379 185.766 338.379 185.767 338.379 185.768C338.379 185.767 338.379 185.766 338.379 185.766ZM338.354 185.822C338.352 185.824 338.352 185.824 338.352 185.824C338.352 185.824 338.352 185.823 338.354 185.822ZM336.497 194.045C336.497 194.045 336.497 194.046 336.497 194.047C336.497 194.046 336.496 194.045 336.497 194.045ZM336.497 194.09C336.497 194.092 336.497 194.093 336.497 194.093C336.496 194.093 336.497 194.092 336.497 194.09ZM338.352 202.314C338.352 202.314 338.353 202.315 338.354 202.316C338.352 202.315 338.352 202.314 338.352 202.314ZM338.379 202.372C338.379 202.373 338.379 202.374 338.379 202.374C338.379 202.374 338.379 202.373 338.379 202.372ZM343.619 208.957C343.619 208.957 343.62 208.957 343.621 208.957L343.619 208.957ZM343.664 208.991C343.665 208.993 343.665 208.994 343.665 208.994C343.665 208.994 343.665 208.993 343.664 208.991ZM351.313 212.65C351.314 212.651 351.315 212.652 351.315 212.652C351.315 212.652 351.314 212.651 351.313 212.65ZM351.249 212.638C351.249 212.638 351.25 212.638 351.252 212.638L351.249 212.638ZM359.721 212.651C359.721 212.651 359.721 212.65 359.723 212.649C359.722 212.651 359.721 212.651 359.721 212.651ZM359.779 212.638C359.78 212.638 359.781 212.638 359.781 212.638L359.779 212.638ZM367.358 208.998C367.358 208.999 367.358 209 367.358 209C367.357 209 367.358 208.999 367.358 208.998ZM351.176 175.009L351.176 175.009L351.176 175.009Z" fill="#FC842E" stroke="black"/>
<path d="M37.8547 738.129C38.4849 737.993 38.6056 736.379 38.7256 734.775C38.8384 733.267 38.9506 731.767 39.485 731.512C40.0379 731.241 41.3125 732.108 42.5806 732.97C43.8968 733.865 45.206 734.755 45.6944 734.365C46.1854 733.96 45.6016 732.473 45.018 730.988C44.4617 729.571 43.9055 728.155 44.2799 727.676L37.8547 738.129ZM37.8547 738.129C37.2463 738.263 36.4648 736.902 35.6766 735.529C34.912 734.197 34.141 732.854 33.5153 732.854C32.8896 732.854 32.1186 734.197 31.354 735.529C30.5658 736.902 29.7844 738.263 29.1759 738.129H37.8547ZM45.4125 733.957C45.4125 733.957 45.4117 733.957 45.41 733.958C45.4117 733.957 45.4125 733.957 45.4125 733.957ZM45.3694 733.959C45.3509 733.958 45.3257 733.955 45.2925 733.949C45.154 733.922 44.9588 733.849 44.705 733.72C44.1998 733.462 43.5871 733.05 42.9337 732.606L42.8513 732.55C42.2384 732.133 41.5955 731.696 41.0328 731.393C40.7388 731.234 40.4425 731.099 40.1658 731.025C39.9024 730.954 39.5701 730.914 39.2672 731.062C38.9642 731.207 38.7924 731.495 38.6879 731.742C38.5774 732.003 38.5015 732.318 38.4444 732.645C38.3377 733.256 38.2815 734.008 38.2276 734.73C38.2238 734.78 38.22 734.831 38.2162 734.882C38.1571 735.668 38.0967 736.402 37.9808 736.955C37.9226 737.233 37.8571 737.43 37.7906 737.553C37.7726 737.586 37.7576 737.609 37.7462 737.624C37.7294 737.615 37.7063 737.6 37.6761 737.578C37.5632 737.493 37.42 737.342 37.2488 737.115C36.9078 736.663 36.5383 736.025 36.1456 735.341L36.1033 735.268C35.7327 734.622 35.3432 733.944 34.9659 733.422C34.7701 733.152 34.5617 732.901 34.3439 732.713C34.1353 732.533 33.8526 732.354 33.5153 732.354C33.1781 732.354 32.8953 732.533 32.6867 732.713C32.4689 732.901 32.2605 733.152 32.0647 733.422C31.6874 733.944 31.2979 734.622 30.9274 735.268L30.885 735.341C30.4923 736.025 30.1228 736.663 29.7818 737.115C29.6106 737.342 29.4674 737.493 29.3545 737.578C29.326 737.599 29.3039 737.613 29.2873 737.622C29.2753 737.606 29.2596 737.582 29.2409 737.548C29.1737 737.422 29.1081 737.224 29.0498 736.945C28.9339 736.391 28.8735 735.657 28.8144 734.873C28.8107 734.823 28.8069 734.773 28.8031 734.722C28.7492 734.002 28.693 733.252 28.5862 732.641C28.5291 732.315 28.4531 732.001 28.3425 731.74C28.2379 731.494 28.066 731.207 27.7634 731.062C27.4606 730.914 27.1287 730.954 26.8655 731.025C26.5892 731.099 26.2936 731.235 26.0006 731.393C25.4428 731.694 24.8059 732.128 24.1977 732.543C24.1668 732.564 24.1361 732.585 24.1054 732.606C23.4538 733.05 22.842 733.462 22.3361 733.719C22.0821 733.848 21.8859 733.922 21.7458 733.949C21.7043 733.956 21.6749 733.959 21.6548 733.959C21.6511 733.941 21.6474 733.914 21.6458 733.876C21.6398 733.736 21.6667 733.531 21.7355 733.255C21.8725 732.707 22.1384 732.019 22.4278 731.284C22.4442 731.243 22.4608 731.201 22.4774 731.159C22.7451 730.479 23.025 729.769 23.1963 729.164C23.2872 728.842 23.3554 728.524 23.3693 728.238C23.3825 727.966 23.3515 727.633 23.1449 727.368L23.1449 727.368L23.1412 727.363C22.931 727.101 22.6127 726.997 22.3474 726.949C22.0677 726.899 21.7438 726.895 21.4119 726.912C20.7902 726.943 20.0427 727.055 19.3255 727.162C19.2767 727.17 19.228 727.177 19.1795 727.184C18.3996 727.301 17.6689 727.405 17.1014 727.415C16.8164 727.42 16.6078 727.4 16.47 727.363C16.4314 727.352 16.4045 727.342 16.3863 727.334C16.3913 727.316 16.3998 727.292 16.414 727.26C16.4707 727.131 16.5856 726.958 16.7677 726.74C17.1305 726.307 17.6675 725.804 18.2452 725.267L18.3111 725.206C18.8554 724.7 19.4275 724.169 19.8512 723.684C20.0717 723.432 20.2702 723.173 20.4056 722.918C20.5353 722.675 20.6479 722.361 20.5787 722.034L20.5787 722.034L20.5779 722.03C20.5052 721.7 20.2636 721.467 20.0454 721.309C19.8155 721.142 19.5259 720.998 19.2202 720.87C18.6503 720.631 17.9328 720.411 17.2438 720.199C17.1934 720.183 17.1431 720.168 17.093 720.152C16.3404 719.921 15.6379 719.699 15.1237 719.462C14.8655 719.343 14.6874 719.234 14.5808 719.141C14.5443 719.109 14.5232 719.085 14.5112 719.069C14.5232 719.053 14.5443 719.029 14.5808 718.997C14.6874 718.903 14.8655 718.795 15.1237 718.676C15.6379 718.439 16.3404 718.217 17.093 717.985C17.143 717.97 17.1933 717.955 17.2438 717.939C17.9328 717.727 18.6503 717.507 19.2202 717.268C19.5259 717.14 19.8155 716.995 20.0454 716.829C20.2628 716.672 20.5035 716.44 20.5771 716.111C20.6529 715.783 20.5406 715.469 20.4129 715.228C20.2787 714.975 20.0806 714.717 19.8607 714.466C19.4413 713.988 18.874 713.463 18.3324 712.961C18.3061 712.937 18.2799 712.913 18.2537 712.888C17.6747 712.352 17.1357 711.847 16.7714 711.411C16.5885 711.192 16.4727 711.018 16.4153 710.887C16.3994 710.851 16.3904 710.824 16.3854 710.805C16.4034 710.796 16.4299 710.787 16.4681 710.776C16.6049 710.739 16.8124 710.72 17.0964 710.726C17.6621 710.738 18.3905 710.844 19.1694 710.962C19.2087 710.968 19.2481 710.974 19.2876 710.98C20.0123 711.09 20.771 711.206 21.4027 711.236C21.7358 711.253 22.0613 711.247 22.3433 711.195C22.6128 711.145 22.9293 711.038 23.1402 710.776L23.1403 710.776L23.1449 710.77C23.3509 710.506 23.3828 710.174 23.3703 709.902C23.3572 709.617 23.2899 709.299 23.1999 708.978C23.0295 708.371 22.7496 707.659 22.4819 706.977C22.4669 706.939 22.4519 706.901 22.437 706.863C22.1491 706.13 21.8837 705.442 21.7455 704.892C21.6761 704.616 21.6478 704.408 21.6528 704.265C21.6542 704.226 21.6576 704.199 21.6612 704.179C21.6797 704.18 21.7049 704.183 21.7382 704.189C21.8766 704.216 22.0718 704.289 22.3256 704.418C22.8309 704.676 23.4436 705.088 24.0969 705.532C24.1243 705.551 24.1518 705.57 24.1794 705.588C24.7922 706.005 25.4351 706.442 25.9979 706.745C26.2918 706.904 26.5881 707.039 26.8649 707.113C27.1282 707.184 27.4605 707.224 27.7634 707.076C28.0664 706.93 28.2382 706.643 28.3427 706.396C28.4532 706.135 28.5291 705.82 28.5862 705.493C28.693 704.881 28.7491 704.13 28.803 703.408C28.8068 703.357 28.8106 703.307 28.8144 703.256C28.8735 702.47 28.9339 701.736 29.0498 701.183C29.108 700.905 29.1736 700.708 29.24 700.585C29.258 700.552 29.273 700.529 29.2844 700.514C29.3012 700.523 29.3243 700.537 29.3545 700.56C29.4674 700.645 29.6106 700.796 29.7818 701.023C30.1228 701.475 30.4923 702.113 30.885 702.796C30.8991 702.821 30.9132 702.845 30.9273 702.87C31.2979 703.516 31.6874 704.194 32.0647 704.715C32.2605 704.986 32.4689 705.237 32.6867 705.425C32.8953 705.605 33.1781 705.784 33.5153 705.784C33.8526 705.784 34.1353 705.605 34.3439 705.425C34.5617 705.237 34.7701 704.986 34.9659 704.715C35.3432 704.194 35.7328 703.515 36.1033 702.87L36.1456 702.796C36.5383 702.113 36.9078 701.475 37.2488 701.023C37.42 700.796 37.5632 700.645 37.6761 700.56C37.7046 700.539 37.7268 700.525 37.7433 700.516C37.7553 700.532 37.7711 700.555 37.7897 700.59C37.8569 700.716 37.9225 700.914 37.9808 701.193C38.0968 701.747 38.1571 702.481 38.2162 703.265C38.22 703.315 38.2237 703.365 38.2275 703.415C38.2814 704.136 38.3376 704.886 38.4444 705.496C38.5016 705.823 38.5775 706.137 38.6881 706.397C38.7928 706.644 38.9646 706.931 39.2672 707.076C39.57 707.224 39.9019 707.184 40.1651 707.113C40.4414 707.039 40.737 706.903 41.03 706.745C41.5878 706.444 42.2247 706.009 42.8329 705.595C42.8637 705.574 42.8945 705.553 42.9252 705.532C43.5769 705.088 44.1886 704.676 44.6945 704.419C44.9485 704.289 45.1447 704.216 45.2849 704.189C45.3263 704.181 45.3558 704.179 45.3758 704.178C45.3795 704.197 45.3832 704.224 45.3848 704.262C45.3908 704.402 45.3639 704.607 45.2951 704.883C45.1581 705.431 44.8922 706.119 44.6028 706.853C44.5864 706.895 44.5698 706.937 44.5533 706.979C44.2855 707.659 44.0056 708.369 43.8344 708.974C43.7434 709.295 43.6752 709.614 43.6613 709.9C43.6481 710.172 43.6791 710.505 43.8857 710.77L43.8857 710.77L43.8895 710.774C44.0996 711.037 44.4179 711.141 44.6833 711.189C44.9629 711.238 45.2868 711.243 45.6187 711.226C46.2404 711.195 46.9879 711.083 47.7051 710.975C47.7539 710.968 47.8026 710.961 47.8511 710.954C48.631 710.837 49.3618 710.733 49.9292 710.723C50.2142 710.717 50.4228 710.737 50.5606 710.775C50.5992 710.785 50.6261 710.796 50.6444 710.804C50.6393 710.822 50.6308 710.846 50.6166 710.878C50.5599 711.007 50.4451 711.18 50.2629 711.398C49.9002 711.831 49.3631 712.334 48.7854 712.871L48.7194 712.932C48.1752 713.438 47.6031 713.969 47.1794 714.454C46.9589 714.706 46.7604 714.965 46.625 715.22C46.4953 715.463 46.3827 715.776 46.4519 716.104L46.4528 716.108C46.5254 716.438 46.767 716.671 46.9853 716.829C47.2151 716.995 47.5047 717.14 47.8104 717.268C48.3803 717.507 49.0978 717.727 49.7868 717.939C49.8373 717.955 49.8876 717.97 49.9376 717.985C50.6903 718.217 51.3927 718.439 51.9069 718.676C52.1651 718.795 52.3432 718.903 52.4499 718.997C52.4863 719.029 52.5074 719.053 52.5194 719.069C52.5074 719.085 52.4863 719.109 52.4499 719.141C52.3432 719.234 52.1651 719.343 51.9069 719.462C51.3927 719.699 50.6903 719.921 49.9376 720.152C49.8875 720.168 49.8372 720.183 49.7868 720.199C49.0978 720.411 48.3803 720.631 47.8104 720.87C47.5047 720.998 47.2151 721.142 46.9853 721.309C46.7678 721.466 46.5272 721.698 46.4536 722.027C46.3777 722.354 46.49 722.669 46.6177 722.91C46.7519 723.163 46.95 723.421 47.1699 723.671C47.5893 724.149 48.1567 724.675 48.6982 725.177C48.7245 725.201 48.7507 725.225 48.7769 725.249C49.3559 725.786 49.895 726.291 50.2592 726.727C50.4422 726.945 50.5579 727.12 50.6153 727.251C50.6312 727.287 50.6402 727.314 50.6453 727.333C50.6273 727.341 50.6007 727.351 50.5625 727.362C50.4258 727.399 50.2182 727.418 49.9342 727.412C49.3685 727.4 48.6401 727.294 47.8612 727.175C47.8219 727.169 47.7825 727.163 47.7429 727.157C47.0183 727.047 46.2596 726.932 45.6279 726.901C45.2948 726.885 44.9693 726.891 44.6873 726.943C44.4179 726.993 44.1013 727.1 43.8904 727.362L43.8903 727.362L43.8857 727.368C43.6797 727.632 43.6478 727.964 43.6603 728.236C43.6734 728.521 43.7407 728.839 43.8307 729.159C44.0011 729.767 44.281 730.479 44.5487 731.16C44.5637 731.199 44.5787 731.237 44.5936 731.275C44.8815 732.008 45.1469 732.696 45.2851 733.246C45.3545 733.522 45.3828 733.73 45.3778 733.873C45.3764 733.911 45.373 733.939 45.3694 733.959ZM50.6515 727.372C50.6515 727.372 50.6515 727.371 50.6516 727.37C50.6516 727.371 50.6516 727.372 50.6515 727.372ZM50.6771 727.315C50.6782 727.314 50.6788 727.314 50.6789 727.314C50.679 727.314 50.6784 727.314 50.6771 727.315ZM52.5341 719.093C52.534 719.093 52.5337 719.092 52.5332 719.091C52.5339 719.092 52.5342 719.093 52.5341 719.093ZM52.5332 719.047C52.5337 719.046 52.534 719.045 52.5341 719.045C52.5342 719.045 52.5339 719.046 52.5332 719.047ZM50.6518 710.766C50.6516 710.765 50.6517 710.764 50.6517 710.764C50.6518 710.764 50.6518 710.765 50.6518 710.766ZM50.6787 710.824C50.6786 710.824 50.678 710.823 50.677 710.822C50.6782 710.823 50.6787 710.824 50.6787 710.824ZM45.4114 704.181C45.4113 704.181 45.4106 704.181 45.4092 704.181C45.4107 704.181 45.4114 704.181 45.4114 704.181ZM45.3666 704.147C45.3656 704.145 45.3651 704.144 45.3652 704.144C45.3652 704.144 45.3658 704.145 45.3666 704.147ZM37.7812 700.499C37.7812 700.499 37.7803 700.5 37.7788 700.5L37.7812 700.499ZM37.7177 700.488C37.7164 700.487 37.7158 700.486 37.7158 700.486C37.7158 700.486 37.7165 700.487 37.7177 700.488ZM29.3099 700.487C29.3099 700.487 29.3091 700.487 29.3075 700.488C29.3091 700.487 29.3099 700.487 29.3099 700.487ZM29.2518 700.5C29.2503 700.5 29.2495 700.499 29.2494 700.499L29.2518 700.5ZM21.6731 704.138C21.6731 704.138 21.6728 704.139 21.6721 704.14C21.6727 704.139 21.6731 704.138 21.6731 704.138ZM21.6206 704.18C21.619 704.181 21.6181 704.181 21.6181 704.181C21.6181 704.181 21.6189 704.18 21.6206 704.18ZM16.3791 710.766C16.3792 710.766 16.3792 710.767 16.379 710.768C16.379 710.767 16.3791 710.766 16.3791 710.766ZM16.3535 710.822C16.3524 710.824 16.3518 710.824 16.3517 710.824C16.3517 710.824 16.3522 710.823 16.3535 710.822ZM14.4965 719.045C14.4966 719.045 14.497 719.046 14.4975 719.047C14.4967 719.046 14.4964 719.045 14.4965 719.045ZM14.4975 719.09C14.497 719.092 14.4966 719.093 14.4965 719.093C14.4964 719.093 14.4967 719.092 14.4975 719.09ZM16.352 727.314C16.352 727.314 16.3526 727.315 16.3537 727.316C16.3524 727.315 16.3519 727.314 16.352 727.314ZM16.3788 727.372C16.379 727.373 16.379 727.374 16.3789 727.374C16.3788 727.374 16.3788 727.373 16.3788 727.372ZM21.6192 733.957C21.6193 733.957 21.62 733.957 21.6214 733.957L21.6192 733.957ZM21.664 733.991C21.665 733.993 21.6655 733.994 21.6654 733.994C21.6654 733.994 21.6649 733.993 21.664 733.991ZM29.313 737.65C29.3142 737.651 29.3148 737.652 29.3148 737.652C29.3148 737.652 29.3142 737.651 29.313 737.65ZM29.2494 737.638C29.2495 737.638 29.2503 737.638 29.2518 737.638L29.2494 737.638ZM37.7207 737.651C37.7207 737.651 37.7215 737.65 37.7231 737.649C37.7216 737.651 37.7207 737.651 37.7207 737.651ZM37.7788 737.638C37.7803 737.638 37.7811 737.638 37.7812 737.638L37.7788 737.638ZM45.3585 733.998C45.3579 733.999 45.3575 734 45.3575 734C45.3575 734 45.3578 733.999 45.3585 733.998ZM29.1759 700.009L29.1759 700.009L29.1759 700.009Z" fill="#FC842E" stroke="black"/>
<path d="M18.5169 465.512L18.5171 465.511C19.8961 464.385 20.8015 462.762 21.459 461.018C22.1139 459.28 22.5407 457.371 22.9297 455.632L22.9346 455.61C23.3303 453.84 23.6829 452.274 24.1858 451.144C24.69 450.011 25.2566 449.506 26 449.5C26.743 449.506 27.3081 450.011 27.8105 451.143C28.3116 452.273 28.6619 453.839 29.0562 455.609L29.0574 455.614C29.4459 457.359 29.8726 459.274 30.5309 461.018C31.1895 462.762 32.098 464.385 33.4831 465.512C35.9023 467.486 38.5645 468.407 40.6373 469.123C41.2654 469.341 41.8394 469.539 42.3361 469.743C43.0439 470.108 43.5934 470.458 43.9643 470.832C44.3259 471.198 44.5 471.568 44.5 472C44.5 472.447 44.3234 472.823 43.9643 473.186C43.5948 473.559 43.0465 473.903 42.3392 474.256C41.8418 474.46 41.2667 474.659 40.6373 474.877C38.5645 475.593 35.9023 476.514 33.4831 478.488L33.4829 478.489C32.1039 479.615 31.1985 481.238 30.541 482.982C29.8861 484.72 29.4593 486.629 29.0703 488.368L29.0654 488.39C28.6697 490.16 28.3171 491.726 27.8142 492.856C27.31 493.989 26.7434 494.494 26 494.5C25.257 494.494 24.6919 493.989 24.1895 492.857C23.6884 491.727 23.3381 490.161 22.9438 488.391L22.9426 488.386C22.5541 486.641 22.1274 484.726 21.4691 482.982C20.8105 481.238 19.902 479.615 18.5169 478.488C16.0977 476.514 13.4355 475.593 11.3627 474.877C10.7346 474.659 10.1606 474.461 9.66389 474.257C8.95607 473.892 8.40658 473.542 8.0357 473.168C7.67409 472.802 7.5 472.432 7.5 472C7.5 471.564 7.67107 471.194 8.02783 470.831C8.39481 470.458 8.94339 470.109 9.66233 469.743C10.1594 469.54 10.7339 469.341 11.3627 469.123C13.4355 468.407 16.0977 467.486 18.5169 465.512Z" fill="#FCC605" stroke="black"/>
<path d="M-6.70354 106.676L-6.70357 106.676C-6.94771 104.417 -6.26357 101.902 -4.51221 98.8754C-3.40313 96.9816 -1.92307 95.351 -0.142136 94.0814L0.432968 93.6714L-0.144834 93.2652C-0.2954 93.1593 -0.442764 93.0659 -0.57919 92.9794L-0.58316 92.9769C-0.723364 92.888 -0.852339 92.8061 -0.981835 92.7151L-0.998356 92.7035L-1.01576 92.6933C-4.67215 90.5412 -8.7126 90.429 -12.3139 91.1983C-15.9118 91.9669 -19.1132 93.6227 -21.1497 95.0722C-22.5262 96.0478 -24.4108 95.7426 -25.4073 94.3503C-26.3786 92.9756 -26.0715 91.0886 -24.6768 90.0882C-18.0936 85.4016 -7.16277 81.9402 2.10641 87.4107C3.8213 88.429 5.34575 89.6514 6.59082 91.047L6.77194 91.25L7.04078 91.2082C11.4733 90.5186 16.1951 91.4432 20.2305 93.8308C23.0496 95.513 25.422 97.7803 27.2088 100.348L27.3872 100.605L27.6959 100.557C32.0245 99.8851 36.3053 100.919 40.1472 103.62C47.7852 108.989 50.4704 117.922 47.9329 130.37L47.9328 130.371C47.5998 132.013 45.989 133.086 44.3517 132.756C42.7128 132.426 41.6426 130.818 41.975 129.178L41.9751 129.178C43.9501 119.401 42.3137 112.578 36.6747 108.614C34.8437 107.327 32.9066 106.601 30.8943 106.48L30.2058 106.438L30.3804 107.106C31.2908 110.584 31.1774 114.108 29.8766 117.217C28.0883 121.445 25.4948 122.918 23.689 123.422L23.6868 123.422C21.3545 124.084 18.7259 123.616 16.6421 122.151C14.8172 120.868 13.615 118.837 13.3209 116.53C12.9942 113.911 13.7978 111.072 15.7887 108.133C17.1465 106.149 18.9288 104.459 21.0005 103.154L21.4974 102.841L21.1092 102.4C20.0131 101.156 18.7075 100.041 17.1567 99.1085L17.1558 99.108C15.2559 97.9712 13.0689 97.3074 10.9228 97.148L10.2836 97.1006L10.3932 97.7321C10.4084 97.8202 10.4293 97.8979 10.4445 97.9543L10.446 97.9599C10.4625 98.0212 10.4724 98.0593 10.4793 98.0992L10.4825 98.1176L10.4871 98.1358C11.3984 101.753 10.9586 105.4 9.33104 108.13C7.62731 110.979 5.63319 112.741 3.44524 113.418L3.44335 113.419C1.47628 114.036 -0.559126 113.79 -2.4719 112.662L-2.48762 112.653L-2.50396 112.645C-2.86079 112.468 -3.10991 112.327 -3.33695 112.167C-5.80572 110.432 -6.53309 108.263 -6.70354 106.676ZM4.37133 99.1674L4.16968 98.5459L3.62248 98.903C2.57262 99.5881 1.55475 100.577 0.768299 101.925C-0.592588 104.249 -0.703015 105.472 -0.643241 105.999L-0.641585 106.013L-0.639073 106.028C-0.63823 106.033 -0.637356 106.038 -0.636432 106.043C-0.618639 106.148 -0.582923 106.358 -0.409899 106.608C-0.240057 106.854 0.038594 107.107 0.487669 107.381L0.488585 107.381C0.733744 107.53 0.947806 107.607 1.14558 107.626C1.33794 107.645 1.51123 107.598 1.49062 107.601L1.52561 107.595L1.55939 107.584C1.85875 107.487 2.78563 107.055 4.00624 104.981L4.0074 104.979C4.63244 103.906 5.07111 101.966 4.50076 99.6317L4.4856 99.5696L4.45621 99.515C4.45634 99.515 4.44991 99.4993 4.43777 99.442C4.43607 99.434 4.43407 99.424 4.43177 99.4126C4.42005 99.3545 4.40043 99.2571 4.37133 99.1674ZM24.4542 108.949L24.2846 108.238L23.6836 108.653C22.3684 109.562 21.3768 110.627 20.7358 111.596C19.8436 112.922 19.3863 114.077 19.2826 115.015C19.1792 115.951 19.4279 116.751 20.053 117.19C20.2551 117.333 20.541 117.473 20.8532 117.56C21.1627 117.646 21.5445 117.693 21.918 117.595L21.9299 117.592L21.9417 117.588C22.4002 117.443 22.812 117.081 23.1655 116.63C23.5263 116.169 23.8648 115.567 24.1631 114.86C24.8895 113.18 24.9661 111.095 24.4542 108.949Z" fill="#6CB9FF" stroke="black"/>
<path d="M25.8382 587.85C18.7013 589.387 12.6582 593.002 8.39572 596.232C6.26225 597.848 4.56917 599.372 3.40189 600.5C2.81812 601.064 2.36556 601.529 2.05493 601.857C1.89958 602.021 1.77984 602.151 1.69708 602.241C1.59882 602.349 1.578 602.372 1.58522 602.365L1.56894 602.381L1.55416 602.398C0.350683 603.805 -1.83121 603.988 -3.28637 602.807C-4.72744 601.637 -4.90784 599.568 -3.70589 598.164L-3.70586 598.164L-3.70186 598.159C-3.27076 597.642 7.77799 584.951 24.3536 581.383C31.0641 579.949 36.9741 580.259 41.8713 582.331L41.8716 582.331C44.6736 583.515 46.6668 585.093 47.9888 586.314L48.1927 586.502L48.4603 586.429C54.4053 584.799 61.2632 584.527 69.2075 584.796L69.209 584.796C71.1252 584.855 72.5852 586.42 72.4961 588.213L72.496 588.213L72.4957 588.221C72.436 590.055 70.8471 591.499 68.9712 591.41L68.9637 591.41C62.6605 591.208 57.2847 591.306 52.6588 592.228L52.1303 592.333L52.2748 592.852C53.2492 596.353 53.1334 600.805 49.928 604.377L49.9278 604.377C48.2817 606.214 44.98 609.237 40.9775 609.5H40.4401C38.453 609.5 36.5628 608.804 34.957 607.4L34.9563 607.4C33.0947 605.778 32.1242 603.598 32.2213 601.162C32.3853 597.663 34.7852 593.88 38.9679 590.867L38.9737 590.863L38.9795 590.858C39.4448 590.502 39.9478 590.175 40.4286 589.874L41.1559 589.419L40.4012 589.011C37.4802 587.43 32.9274 586.312 25.8382 587.85ZM25.8382 587.85C25.8384 587.85 25.8386 587.85 25.8388 587.85L25.9441 588.339M25.8382 587.85C25.8382 587.85 25.8381 587.85 25.8381 587.85L25.9441 588.339M25.9441 588.339C12.3105 591.274 2.66631 601.916 1.97318 602.681C1.95044 602.706 1.93734 602.72 1.93404 602.723L39.6467 589.185C36.8261 587.812 32.5177 586.913 25.9441 588.339ZM45.8449 595.257L45.7232 594.58L45.1167 594.905C44.3982 595.29 43.7215 595.741 43.0932 596.183L43.0931 596.183L43.0876 596.187C41.7706 597.14 40.7973 598.128 40.1397 599.031C39.4919 599.92 39.1195 600.77 39.0762 601.445L39.0752 601.461V601.477C39.0752 601.622 39.0822 601.803 39.1528 601.983C39.2276 602.175 39.3523 602.315 39.4947 602.432C39.6938 602.605 39.8741 602.72 40.0524 602.785C40.2394 602.853 40.3892 602.853 40.4702 602.853H40.4747H40.4927L40.5106 602.852C41.1163 602.808 41.8486 602.448 42.557 601.961C43.2843 601.46 44.0569 600.777 44.755 599.993C46.0861 598.542 46.0974 596.662 45.8449 595.257Z" fill="#FC842E" stroke="black"/>
<path d="M363.277 737.372C363.942 733.85 363.884 730.914 362.977 728.345C362.068 725.771 360.326 723.621 357.723 721.637L357.721 721.636C356.455 720.679 356.223 718.889 357.191 717.622C358.153 716.363 359.955 716.13 361.231 717.094C364.747 719.776 367.101 722.802 368.37 726.291C369.64 729.784 369.838 733.782 368.971 738.434L368.971 738.435C367.955 743.92 364.203 749.108 359.225 752.004L359.224 752.005C356.063 753.852 352.688 754.534 349.562 754.077L349.304 754.04L349.125 754.23C345.932 757.639 341.828 759.5 337.537 759.5H337.536H337.536H337.535H337.535H337.534H337.534H337.533H337.533H337.532H337.532H337.531H337.53H337.53H337.529H337.529H337.528H337.528H337.527H337.527H337.526H337.526H337.525H337.525H337.524H337.523H337.523H337.522H337.522H337.521H337.521H337.52H337.52H337.519H337.519H337.518H337.517H337.517H337.516H337.516H337.515H337.515H337.514H337.514H337.513H337.513H337.512H337.511H337.511H337.51H337.51H337.509H337.509H337.508H337.508H337.507H337.506H337.506H337.505H337.505H337.504H337.504H337.503H337.503H337.502H337.501H337.501H337.5H337.5H337.499H337.499H337.498H337.497H337.497H337.496H337.496H337.495H337.495H337.494H337.493H337.493H337.492H337.492H337.491H337.491H337.49H337.489H337.489H337.488H337.488H337.487H337.487H337.486H337.485H337.485H337.484H337.484H337.483H337.483H337.482H337.481H337.481H337.48H337.48H337.479H337.479H337.478H337.477H337.477H337.476H337.476H337.475H337.474H337.474H337.473H337.473H337.472H337.472H337.471H337.47H337.47H337.469H337.469H337.468H337.467H337.467H337.466H337.466H337.465H337.464H337.464H337.463H337.463H337.462H337.462H337.461H337.46H337.46H337.459H337.459H337.458H337.457H337.457H337.456H337.456H337.455H337.454H337.454H337.453H337.453H337.452H337.451H337.451H337.45H337.45H337.449H337.448H337.448H337.447H337.447H337.446H337.445H337.445H337.444H337.444H337.443H337.442H337.442H337.441H337.441H337.44H337.439H337.439H337.438H337.438H337.437H337.436H337.436H337.435H337.435H337.434H337.433H337.433H337.432H337.432H337.431H337.43H337.43H337.429H337.429H337.428H337.427H337.427H337.426H337.426H337.425H337.424H337.424H337.423H337.422H337.422H337.421H337.421H337.42H337.419H337.419H337.418H337.418H337.417H337.416H337.416H337.415H337.415H337.414H337.413H337.413H337.412H337.412H337.411H337.41H337.41H337.409H337.409H337.408H337.407H337.407H337.406H337.405H337.405H337.404H337.404H337.403H337.402H337.402H337.401H337.401H337.4H337.399H337.399H337.398H337.398H337.397H337.396H337.396H337.395H337.394H337.394H337.393H337.393H337.392H337.391H337.391H337.39H337.39H337.389H337.388H337.388H337.387H337.387H337.386H337.385H337.385H337.384H337.383H337.383H337.382H337.382H337.381H337.38H337.38H337.379H337.379H337.378H337.377H337.377H337.376H337.376H337.375H337.374H337.374H337.373H337.372H337.372H337.371H337.371H337.37H337.369H337.369H337.368H337.368H337.367H337.366H337.366H337.365H337.365H337.364H337.363H337.363H337.362H337.361H337.361H337.36H337.36H337.359H337.358H337.358H337.357H337.357H337.356H337.355H337.355H337.354H337.354H337.353H337.352H337.352H337.351H337.351H337.35H337.349H337.349H337.348H337.348H337.347H337.346H337.346H337.345H337.344H337.344H337.343H337.343H337.342H337.341H337.341H337.34H337.34H337.339H337.338H337.338H337.337H337.337H337.336H337.335H337.335H337.334H337.334H337.333H337.332H337.332H337.331H337.331H337.33H337.329H337.329H337.328H337.328H337.327H337.326H337.326H337.325H337.325H337.324H337.323H337.323H337.322H337.322H337.321H337.32H337.32H337.319H337.319H337.318H337.318H337.317H337.316H337.316H337.315H337.315H337.314H337.313H337.313H337.312H337.312H337.311H337.31H337.31H337.309H337.309H337.308H337.307H337.307H337.306H337.306H337.305H337.305H337.304H337.303H337.303H337.302H337.302H337.301H337.3H337.3H337.299H337.299H337.298H337.298H337.297H337.296H337.296H337.295H337.295H337.294H337.293H337.293H337.292H337.292H337.291H337.291H337.29H337.289H337.289H337.288H337.288H337.287H337.287H337.286H337.285H337.285H337.284H337.284H337.283H337.283H337.282H337.281H337.281H337.28H337.28H337.279H337.279H337.278H337.277H337.277H337.276H337.276H337.275H337.275H337.274H337.274H337.273H337.272H337.272H337.271H337.271H337.27H337.27H337.269H337.268H337.268H337.267H337.267H337.266H337.266H337.265H337.265H337.264H337.263H337.263H337.262H337.262H337.261H337.261H337.26H337.26H337.259H337.259H337.258H337.257H337.257H337.256H337.256H337.255H337.255H337.254H337.254H337.253H337.253H337.252H337.251H337.251H337.25H337.25H337.249H337.249H337.248H337.248H337.247H337.247H337.246H337.246H337.245H337.244H337.244H337.244C332.176 759.398 328.047 757 325.028 753.971C322.001 750.933 320.131 747.299 319.573 744.823L319.572 744.82C319.219 743.288 320.204 741.741 321.76 741.386C323.306 741.033 324.858 742.017 325.215 743.56C325.477 744.729 326.643 747.227 328.648 749.45C330.663 751.683 333.586 753.704 337.378 753.767C339.084 753.799 341.12 753.132 342.97 751.904L343.549 751.52L343.001 751.093C339.368 748.259 336.773 743.844 336.486 739.65C336.259 736.033 337.839 733.152 340.797 731.708L340.797 731.708L340.8 731.707C343.761 730.233 346.848 730.363 349.245 731.943L349.247 731.945C352.409 734.005 354.142 738.3 353.82 743.806L353.82 743.806L353.82 743.811C353.763 745.004 353.505 746.264 353.099 747.506L352.804 748.408L353.715 748.141C354.771 747.832 355.673 747.4 356.301 747.025C359.818 744.997 362.563 741.199 363.277 737.372ZM363.277 737.372C363.276 737.372 363.276 737.373 363.276 737.373L362.785 737.28M363.277 737.372C363.277 737.372 363.277 737.372 363.277 737.372L362.785 737.28M362.785 737.28C364.097 730.34 362.517 725.92 357.419 722.035M362.785 737.28C362.099 740.958 359.446 744.636 356.048 746.593L357.419 722.035M357.419 722.035C355.929 720.907 355.661 718.802 356.793 717.319C357.926 715.836 360.043 715.569 361.533 716.696C368.687 722.153 371.221 729.094 369.462 738.526L357.419 722.035ZM342.195 739.297L342.195 739.301C342.276 740.514 342.774 741.895 343.546 743.193C344.321 744.496 345.391 745.749 346.657 746.697L347.194 747.099L347.426 746.47C347.765 745.548 348.019 744.547 348.052 743.471C348.159 741.585 347.946 740.09 347.568 738.97C347.194 737.86 346.642 737.078 346.037 736.683L345.983 736.648L345.921 736.628C345.979 736.647 345.541 736.394 344.959 736.394C344.511 736.394 343.988 736.508 343.336 736.832L343.33 736.835C343.165 736.917 342.827 737.085 342.563 737.487C342.297 737.892 342.146 738.468 342.195 739.297Z" fill="#FC842E" stroke="black"/>
<path d="M46.7368 349.285L46.7355 349.288C46.4718 349.928 46.4997 350.701 46.61 351.446C46.7019 352.067 46.8633 352.736 47.018 353.378C47.0512 353.515 47.0841 353.652 47.1159 353.786C47.301 354.567 47.4513 355.283 47.4702 355.889C47.4892 356.501 47.3704 356.894 47.132 357.132C46.8942 357.37 46.5022 357.488 45.8906 357.467C45.2841 357.446 44.568 357.294 43.7868 357.107C43.6593 357.077 43.53 357.045 43.3995 357.014C42.7512 356.856 42.0741 356.692 41.4456 356.6C40.7003 356.491 39.9261 356.466 39.2848 356.737C38.6582 356.997 38.1453 357.565 37.7102 358.166C37.3602 358.65 37.0209 359.213 36.693 359.758C36.6072 359.901 36.5222 360.042 36.4379 360.18C36.0205 360.865 35.6192 361.48 35.1978 361.924C34.7746 362.37 34.3984 362.572 34.0358 362.572C33.6729 362.572 33.295 362.37 32.8698 361.924C32.4465 361.479 32.043 360.864 31.6243 360.179C31.5364 360.036 31.4477 359.889 31.3582 359.741C31.0328 359.201 30.6967 358.645 30.3517 358.167C29.9181 357.566 29.408 356.997 28.7871 356.737L28.784 356.736C28.1436 356.472 27.3703 356.5 26.6253 356.61C26.0043 356.702 25.3354 356.863 24.6938 357.018C24.5563 357.051 24.42 357.084 24.2857 357.116C23.5049 357.301 22.7888 357.451 22.1825 357.47C21.5709 357.489 21.1781 357.37 20.9396 357.132C20.7019 356.894 20.5841 356.502 20.6048 355.891C20.6253 355.284 20.7778 354.568 20.9645 353.787C20.995 353.659 21.0264 353.53 21.058 353.4C21.2154 352.751 21.3798 352.074 21.4719 351.446C21.581 350.7 21.6059 349.926 21.3349 349.285C21.0745 348.658 20.5063 348.145 19.9053 347.71C19.4218 347.36 18.8582 347.021 18.3135 346.693C18.1709 346.607 18.0297 346.522 17.8915 346.438C17.2068 346.02 16.5914 345.619 16.1474 345.198C15.7015 344.775 15.5 344.398 15.5 344.036C15.5 343.673 15.7019 343.295 16.1481 342.87C16.5922 342.447 17.2078 342.043 17.8922 341.624C18.0358 341.536 18.1827 341.448 18.331 341.358C18.8702 341.033 19.4269 340.697 19.9048 340.352C20.5053 339.918 21.0742 339.408 21.3348 338.787L21.3348 338.787L21.3361 338.784C21.5998 338.144 21.5719 337.37 21.4617 336.625C21.3698 336.004 21.2084 335.335 21.0536 334.694C21.0204 334.556 20.9875 334.42 20.9557 334.286C20.7707 333.505 20.6203 332.789 20.6015 332.182C20.5825 331.571 20.7012 331.178 20.9396 330.94C21.1774 330.702 21.5694 330.584 22.1811 330.605C22.7875 330.625 23.5036 330.778 24.2848 330.965C24.4123 330.995 24.5417 331.026 24.6721 331.058C25.3204 331.215 25.9975 331.38 26.626 331.472C27.3713 331.581 28.1455 331.606 28.7868 331.335C29.4134 331.074 29.9263 330.506 30.3614 329.905C30.7114 329.422 31.0507 328.858 31.3786 328.314C31.4644 328.171 31.5495 328.03 31.6337 327.891C32.0511 327.207 32.4524 326.591 32.8738 326.147C33.2971 325.701 33.6733 325.5 34.0358 325.5C34.3988 325.5 34.7766 325.702 35.2019 326.148C35.6251 326.592 36.0286 327.208 36.4473 327.892C36.5352 328.036 36.6239 328.183 36.7134 328.331C37.0389 328.87 37.3749 329.427 37.72 329.905C38.1536 330.505 38.6636 331.074 39.2845 331.335L39.2877 331.336C39.9281 331.6 40.7013 331.572 41.4464 331.462C42.0673 331.37 42.7362 331.208 43.3778 331.054C43.5153 331.02 43.6516 330.988 43.7859 330.956C44.5667 330.771 45.2828 330.62 45.8892 330.601C46.5007 330.582 46.8936 330.701 47.132 330.94C47.3698 331.177 47.4876 331.569 47.4668 332.181C47.4463 332.788 47.2938 333.504 47.1071 334.285C47.0767 334.412 47.0453 334.542 47.0136 334.672C46.8562 335.32 46.6918 335.997 46.5998 336.626C46.4905 337.372 46.4657 338.146 46.7371 338.788C46.9979 339.408 47.5665 339.918 48.1668 340.352C48.6448 340.697 49.2015 341.033 49.7406 341.358C49.8889 341.448 50.0358 341.536 50.1795 341.624C50.8638 342.043 51.4794 342.447 51.9235 342.87C52.3697 343.295 52.5716 343.673 52.5716 344.036C52.5716 344.399 52.3697 344.777 51.9235 345.202C51.4794 345.625 50.8638 346.029 50.1795 346.447C50.0358 346.535 49.8889 346.624 49.7406 346.713C49.2015 347.039 48.6448 347.375 48.1668 347.72C47.5663 348.154 46.9975 348.664 46.7368 349.285Z" fill="#6CB9FF" stroke="black"/>
<path d="M381.737 566.285L381.736 566.288C381.472 566.928 381.5 567.701 381.61 568.446C381.702 569.067 381.863 569.736 382.018 570.378C382.051 570.515 382.084 570.652 382.116 570.786C382.301 571.567 382.451 572.283 382.47 572.889C382.489 573.501 382.37 573.894 382.132 574.132C381.894 574.37 381.502 574.488 380.891 574.467C380.284 574.446 379.568 574.294 378.787 574.107C378.659 574.077 378.53 574.045 378.4 574.014C377.751 573.856 377.074 573.692 376.446 573.6C375.7 573.491 374.926 573.466 374.285 573.737C373.658 573.997 373.145 574.565 372.71 575.166C372.36 575.65 372.021 576.213 371.693 576.758C371.607 576.901 371.522 577.042 371.438 577.18C371.02 577.865 370.619 578.48 370.198 578.924C369.775 579.37 369.398 579.572 369.036 579.572C368.673 579.572 368.295 579.37 367.87 578.924C367.447 578.479 367.043 577.864 366.624 577.179C366.536 577.036 366.448 576.889 366.358 576.741C366.033 576.201 365.697 575.645 365.352 575.167C364.918 574.566 364.408 573.997 363.787 573.737L363.784 573.736C363.144 573.472 362.37 573.5 361.625 573.61C361.004 573.702 360.335 573.863 359.694 574.018C359.556 574.051 359.42 574.084 359.286 574.116C358.505 574.301 357.789 574.451 357.182 574.47C356.571 574.489 356.178 574.37 355.94 574.132C355.702 573.894 355.584 573.502 355.605 572.891C355.625 572.284 355.778 571.568 355.965 570.787C355.995 570.659 356.026 570.53 356.058 570.4C356.215 569.751 356.38 569.074 356.472 568.446C356.581 567.7 356.606 566.926 356.335 566.285C356.074 565.658 355.506 565.145 354.905 564.71C354.422 564.36 353.858 564.021 353.314 563.693C353.171 563.607 353.03 563.522 352.891 563.438C352.207 563.02 351.591 562.619 351.147 562.198C350.701 561.775 350.5 561.398 350.5 561.036C350.5 560.673 350.702 560.295 351.148 559.87C351.592 559.447 352.208 559.043 352.892 558.624C353.036 558.536 353.183 558.448 353.331 558.358C353.87 558.033 354.427 557.697 354.905 557.352C355.505 556.918 356.074 556.408 356.335 555.787L356.335 555.787L356.336 555.784C356.6 555.144 356.572 554.37 356.462 553.625C356.37 553.004 356.208 552.335 356.054 551.694C356.02 551.556 355.988 551.42 355.956 551.286C355.771 550.505 355.62 549.789 355.601 549.182C355.582 548.571 355.701 548.178 355.94 547.94C356.177 547.702 356.569 547.584 357.181 547.605C357.788 547.625 358.504 547.778 359.285 547.965C359.412 547.995 359.542 548.026 359.672 548.058C360.32 548.215 360.997 548.38 361.626 548.472C362.371 548.581 363.146 548.606 363.787 548.335C364.413 548.074 364.926 547.506 365.361 546.905C365.711 546.422 366.051 545.858 366.379 545.314C366.464 545.171 366.549 545.03 366.634 544.891C367.051 544.207 367.452 543.591 367.874 543.147C368.297 542.701 368.673 542.5 369.036 542.5C369.399 542.5 369.777 542.702 370.202 543.148C370.625 543.592 371.029 544.208 371.447 544.892C371.535 545.036 371.624 545.183 371.713 545.331C372.039 545.87 372.375 546.427 372.72 546.905C373.154 547.505 373.664 548.074 374.285 548.335L374.288 548.336C374.928 548.6 375.701 548.572 376.446 548.462C377.067 548.37 377.736 548.208 378.378 548.054C378.515 548.02 378.652 547.988 378.786 547.956C379.567 547.771 380.283 547.62 380.889 547.601C381.501 547.582 381.894 547.701 382.132 547.94C382.37 548.177 382.488 548.569 382.467 549.181C382.446 549.788 382.294 550.504 382.107 551.285C382.077 551.412 382.045 551.542 382.014 551.672C381.856 552.32 381.692 552.997 381.6 553.626C381.491 554.372 381.466 555.146 381.737 555.788C381.998 556.408 382.567 556.918 383.167 557.352C383.645 557.697 384.201 558.033 384.741 558.358C384.889 558.448 385.036 558.536 385.179 558.624C385.864 559.043 386.479 559.447 386.924 559.87C387.37 560.295 387.572 560.673 387.572 561.036C387.572 561.399 387.37 561.777 386.924 562.202C386.479 562.625 385.864 563.029 385.179 563.447C385.036 563.535 384.889 563.624 384.741 563.713C384.201 564.039 383.645 564.375 383.167 564.72C382.566 565.154 381.997 565.664 381.737 566.285Z" fill="#FCC605" stroke="black"/>
<path d="M171.727 832.496L171.738 832.496C172.484 832.478 173.196 832.184 173.779 831.742C174.718 831.031 175.302 829.906 175.262 828.601C175.125 825.039 175.407 819.319 176.473 814.069C177.006 811.443 177.739 808.914 178.725 806.825C179.706 804.746 180.966 803.042 182.587 802.149L182.591 802.147L182.591 802.147C183.046 801.902 183.443 801.773 183.83 801.756C184.221 801.74 184.551 801.84 184.856 801.967L184.867 801.972L184.867 801.972C185.987 802.471 186.994 803.615 187.749 804.759C188.51 805.912 189.08 807.169 189.275 808L189.277 808.011L189.277 808.011C189.67 809.877 191.427 811.124 193.341 810.928C195.292 810.709 196.803 809.106 196.876 807.199L196.877 807.191L196.877 807.191C196.911 806.578 196.915 805.897 196.919 805.123C196.921 804.832 196.922 804.528 196.926 804.21L171.727 832.496ZM171.727 832.496L171.717 832.497C169.693 832.629 167.987 831.082 167.918 829.048L167.918 829.048L167.918 829.039C167.905 828.797 167.704 822.548 168.766 815.525M171.727 832.496L168.766 815.525M168.766 815.525C170.365 805.225 173.87 798.674 179.12 795.791L179.12 795.791C182.051 794.181 185.093 794.005 187.969 795.292L187.972 795.293C188.37 795.468 188.743 795.666 189.146 795.896L189.822 796.284L189.892 795.507C190.219 791.88 190.891 788.138 192.272 784.981C193.65 781.83 195.717 779.297 198.821 778.009L198.821 778.009C201.987 776.694 205.281 777.055 208.364 778.935L209.027 779.339L209.121 778.568C209.595 774.647 210.499 770.525 212.158 767.143C213.816 763.765 216.2 761.176 219.619 760.208C222.643 759.362 225.502 759.76 227.905 761.357L227.906 761.358C230.845 763.296 232.687 766.738 233.814 769.91C234.935 773.068 235.317 775.873 235.386 776.44L168.766 815.525ZM223.759 767.469C223.759 767.468 223.759 767.468 223.758 767.468L223.48 767.883L223.76 767.469C223.76 767.469 223.76 767.469 223.759 767.469Z" fill="#6CB9FF" stroke="black"/>
<path d="M341.727 129.496L341.738 129.496C342.484 129.478 343.196 129.184 343.779 128.742C344.718 128.031 345.302 126.906 345.262 125.601C345.125 122.039 345.407 116.319 346.473 111.069C347.006 108.443 347.739 105.914 348.725 103.825C349.706 101.746 350.966 100.042 352.587 99.1491L352.591 99.1466L352.591 99.1466C353.046 98.9025 353.443 98.7732 353.83 98.7565C354.221 98.7395 354.551 98.8397 354.856 98.9666L354.867 98.9715L354.867 98.9717C355.987 99.4714 356.994 100.615 357.749 101.759C358.51 102.912 359.08 104.169 359.275 105L359.277 105.011L359.277 105.011C359.67 106.877 361.427 108.124 363.341 107.928C365.292 107.709 366.803 106.106 366.876 104.199L366.877 104.191L366.877 104.191C366.911 103.578 366.915 102.897 366.919 102.123C366.921 101.832 366.922 101.528 366.926 101.21L341.727 129.496ZM341.727 129.496L341.717 129.497C339.693 129.629 337.987 128.082 337.918 126.048L337.918 126.048L337.918 126.039C337.905 125.797 337.704 119.548 338.766 112.525M341.727 129.496L338.766 112.525M338.766 112.525C340.365 102.225 343.87 95.6736 349.12 92.7909L349.12 92.7909C352.051 91.1813 355.093 91.0052 357.969 92.2919L357.972 92.2931C358.37 92.4679 358.743 92.6655 359.146 92.8964L359.822 93.284L359.892 92.5074C360.219 88.8797 360.891 85.1382 362.272 81.9814C363.65 78.8303 365.717 76.2972 368.821 75.0094L368.821 75.0093C371.987 73.6945 375.281 74.055 378.364 75.9348L379.027 76.3393L379.121 75.5679C379.595 71.6474 380.499 67.5248 382.158 64.1428C383.816 60.7645 386.2 58.1761 389.619 57.2077C392.643 56.3616 395.502 56.7596 397.905 58.3566L397.906 58.3575C400.845 60.2964 402.687 63.738 403.814 66.91C404.935 70.0677 405.317 72.8726 405.386 73.4397L338.766 112.525ZM393.759 64.4686C393.759 64.4684 393.759 64.4682 393.758 64.468L393.48 64.8834L393.76 64.4692C393.76 64.469 393.76 64.4688 393.759 64.4686Z" fill="#FCC605" stroke="black"/>
<path d="M26.7271 266.496L26.7377 266.496C27.4836 266.478 28.1963 266.184 28.7793 265.742C29.7176 265.031 30.3016 263.906 30.262 262.601C30.1248 259.039 30.4071 253.319 31.4732 248.069C32.0063 245.443 32.7393 242.914 33.7251 240.825C34.7064 238.746 35.9662 237.042 37.5867 236.149L37.5913 236.147L37.5913 236.147C38.0456 235.902 38.443 235.773 38.8301 235.756C39.2208 235.74 39.5505 235.84 39.8555 235.967L39.8673 235.972L39.8672 235.972C40.9866 236.471 41.9944 237.615 42.7491 238.759C43.5102 239.912 44.0797 241.169 44.2746 242L44.2772 242.011L44.2771 242.011C44.6702 243.877 46.427 245.124 48.3406 244.928C50.2917 244.709 51.8034 243.106 51.8764 241.199L51.8767 241.191L51.8768 241.191C51.911 240.578 51.9147 239.897 51.919 239.123C51.9206 238.832 51.9223 238.528 51.9256 238.21L26.7271 266.496ZM26.7271 266.496L26.7166 266.497C24.6926 266.629 22.9872 265.082 22.9181 263.048L22.9182 263.048L22.9178 263.039C22.9053 262.797 22.704 256.548 23.7662 249.525M26.7271 266.496L23.7662 249.525M23.7662 249.525C25.3647 239.225 28.8698 232.674 34.1202 229.791L34.1202 229.791C37.0513 228.181 40.093 228.005 42.9694 229.292L42.9723 229.293C43.3695 229.468 43.7425 229.666 44.1456 229.896L44.8222 230.284L44.8921 229.507C45.2187 225.88 45.8913 222.138 47.272 218.981C48.6503 215.83 50.7172 213.297 53.8209 212.009L53.821 212.009C56.987 210.694 60.2811 211.055 63.3641 212.935L64.0275 213.339L64.1208 212.568C64.595 208.647 65.4988 204.525 67.1583 201.143C68.8159 197.765 71.2 195.176 74.6193 194.208C77.643 193.362 80.5023 193.76 82.9047 195.357L82.9061 195.358C85.8446 197.296 87.6873 200.738 88.8138 203.91C89.9352 207.068 90.3172 209.873 90.3862 210.44L23.7662 249.525ZM78.7594 201.469C78.7591 201.468 78.7588 201.468 78.7585 201.468L78.4804 201.883L78.7604 201.469C78.76 201.469 78.7597 201.469 78.7594 201.469Z" fill="#FC842E" stroke="black"/>
<path d="M309.273 788.776L309.273 788.776L309.267 788.783L302.935 795.801C302.934 795.802 302.934 795.802 302.934 795.802C302.211 796.599 300.936 796.669 300.147 795.954C299.349 795.231 299.279 793.956 299.994 793.166L299.995 793.165L306.327 786.147C306.327 786.147 306.328 786.147 306.328 786.146C307.051 785.349 308.326 785.279 309.115 785.994L309.115 785.994L309.121 785.999C309.943 786.722 310.012 787.988 309.273 788.776Z" fill="#6CB9FF" stroke="black"/>
<path d="M314.222 791.996L314.222 791.996L314.221 791.993C313.826 790.98 314.342 789.83 315.372 789.428C316.386 789.032 317.535 789.548 317.938 790.577C317.938 790.578 317.938 790.578 317.938 790.579L320.807 798.063L320.807 798.063L320.808 798.066C321.203 799.078 320.689 800.226 319.662 800.63C318.642 801 317.491 800.475 317.091 799.48L314.222 791.996Z" fill="#6CB9FF" stroke="black"/>
<path d="M324.924 801.547L324.924 801.547L324.928 801.545L332.1 797.991C332.1 797.99 332.101 797.99 332.101 797.99C333.07 797.519 334.27 797.915 334.771 798.888C335.24 799.856 334.843 801.055 333.87 801.556L326.701 805.109C326.701 805.109 326.7 805.11 326.7 805.11C325.732 805.58 324.533 805.185 324.031 804.214C323.555 803.204 323.968 802.013 324.924 801.547Z" fill="#6CB9FF" stroke="black"/>
<path d="M344.273 450.776L344.273 450.776L344.267 450.783L337.935 457.801C337.934 457.802 337.934 457.802 337.934 457.802C337.211 458.599 335.936 458.669 335.147 457.954C334.349 457.231 334.279 455.956 334.994 455.166L334.995 455.165L341.327 448.147C341.327 448.147 341.328 448.147 341.328 448.146C342.051 447.349 343.326 447.279 344.115 447.994L344.115 447.994L344.121 447.999C344.943 448.722 345.012 449.988 344.273 450.776Z" fill="#6CB9FF" stroke="black"/>
<path d="M349.222 453.996L349.222 453.996L349.221 453.993C348.826 452.98 349.342 451.83 350.372 451.428C351.386 451.032 352.535 451.548 352.938 452.577C352.938 452.578 352.938 452.578 352.938 452.579L355.807 460.063L355.807 460.063L355.808 460.066C356.203 461.078 355.689 462.226 354.662 462.63C353.642 463 352.491 462.475 352.091 461.48L349.222 453.996Z" fill="#6CB9FF" stroke="black"/>
<path d="M359.924 463.547L359.924 463.547L359.928 463.545L367.1 459.991C367.1 459.99 367.101 459.99 367.101 459.99C368.07 459.519 369.27 459.915 369.771 460.888C370.24 461.856 369.843 463.055 368.87 463.556L361.701 467.109C361.701 467.109 361.7 467.11 361.7 467.11C360.732 467.58 359.533 467.185 359.031 466.214C358.555 465.204 358.968 464.013 359.924 463.547Z" fill="#6CB9FF" stroke="black"/>
<path d="M64.2732 642.776L64.2732 642.776L64.2668 642.783L57.9346 649.801C57.9345 649.802 57.9343 649.802 57.9342 649.802C57.2111 650.599 55.9362 650.669 55.1469 649.954C54.349 649.231 54.2789 647.956 54.9944 647.166L54.9951 647.165L61.3273 640.147C61.3274 640.147 61.3276 640.147 61.3277 640.146C62.0509 639.349 63.3257 639.279 64.1151 639.994L64.115 639.994L64.1208 639.999C64.943 640.722 65.0115 641.988 64.2732 642.776Z" fill="#6CB9FF" stroke="black"/>
<path d="M69.2225 645.996L69.2225 645.996L69.2214 645.993C68.8258 644.98 69.3424 643.83 70.3724 643.428C71.3857 643.032 72.5351 643.548 72.9376 644.577C72.9377 644.578 72.9379 644.578 72.9381 644.579L75.8071 652.063L75.8071 652.063L75.8082 652.066C76.2031 653.078 75.6888 654.226 74.6621 654.63C73.6417 655 72.4914 654.475 72.0912 653.48L69.2225 645.996Z" fill="#6CB9FF" stroke="black"/>
<path d="M79.9245 655.547L79.9245 655.547L79.9275 655.545L87.0997 651.991C87.1002 651.99 87.1006 651.99 87.1011 651.99C88.0698 651.519 89.2698 651.915 89.7715 652.888C90.2403 653.856 89.8428 655.055 88.8703 655.556L81.7014 659.109C81.701 659.109 81.7005 659.11 81.7 659.11C80.7321 659.58 79.5332 659.185 79.0308 658.214C78.5554 657.204 78.9676 656.013 79.9245 655.547Z" fill="#6CB9FF" stroke="black"/>
<path d="M293.273 192.776L293.273 192.776L293.267 192.783L286.935 199.801C286.934 199.802 286.934 199.802 286.934 199.802C286.211 200.599 284.936 200.669 284.147 199.954C283.349 199.231 283.279 197.956 283.994 197.166L283.995 197.165L290.327 190.147C290.327 190.147 290.328 190.147 290.328 190.146C291.051 189.349 292.326 189.279 293.115 189.994L293.115 189.994L293.121 189.999C293.943 190.722 294.012 191.988 293.273 192.776Z" fill="#6CB9FF" stroke="black"/>
<path d="M298.222 195.996L298.222 195.996L298.221 195.993C297.826 194.98 298.342 193.83 299.372 193.428C300.386 193.032 301.535 193.548 301.938 194.577C301.938 194.578 301.938 194.578 301.938 194.579L304.807 202.063L304.807 202.063L304.808 202.066C305.203 203.078 304.689 204.226 303.662 204.63C302.642 205 301.491 204.475 301.091 203.48L298.222 195.996Z" fill="#6CB9FF" stroke="black"/>
<path d="M308.924 205.547L308.924 205.547L308.928 205.545L316.1 201.99C316.1 201.99 316.101 201.99 316.101 201.99C317.07 201.519 318.27 201.915 318.771 202.888C319.24 203.856 318.843 205.055 317.87 205.556L310.701 209.109C310.701 209.109 310.7 209.109 310.7 209.11C309.732 209.58 308.533 209.185 308.031 208.214C307.555 207.204 307.968 206.013 308.924 205.547Z" fill="#6CB9FF" stroke="black"/>
<path d="M263.273 703.776L263.273 703.776L263.267 703.783L256.935 710.801C256.934 710.802 256.934 710.802 256.934 710.802C256.211 711.599 254.936 711.669 254.147 710.954C253.349 710.231 253.279 708.956 253.994 708.166L253.995 708.165L260.327 701.147C260.327 701.147 260.328 701.147 260.328 701.146C261.051 700.349 262.326 700.279 263.115 700.994L263.115 700.994L263.121 700.999C263.943 701.722 264.012 702.988 263.273 703.776Z" fill="#FCC605" stroke="black"/>
<path d="M268.222 706.996L268.222 706.996L268.221 706.993C267.826 705.98 268.342 704.83 269.372 704.428C270.386 704.032 271.535 704.548 271.938 705.577C271.938 705.578 271.938 705.578 271.938 705.579L274.807 713.063L274.807 713.063L274.808 713.066C275.203 714.078 274.689 715.226 273.662 715.63C272.642 716 271.491 715.475 271.091 714.48L268.222 706.996Z" fill="#FCC605" stroke="black"/>
<path d="M278.924 716.547L278.924 716.547L278.928 716.545L286.1 712.991C286.1 712.99 286.101 712.99 286.101 712.99C287.07 712.519 288.27 712.915 288.771 713.888C289.24 714.856 288.843 716.055 287.87 716.556L280.701 720.109C280.701 720.109 280.7 720.11 280.7 720.11C279.732 720.58 278.533 720.185 278.031 719.214C277.555 718.204 277.968 717.013 278.924 716.547Z" fill="#FCC605" stroke="black"/>
<path d="M70.2732 85.776L70.2732 85.7759L70.2668 85.783L63.9346 92.8014C63.9345 92.8015 63.9343 92.8017 63.9342 92.8018C63.2111 93.5993 61.9362 93.6692 61.1469 92.9538C60.349 92.2307 60.2789 90.9556 60.9944 90.1661L60.9951 90.1653L67.3273 83.1469C67.3274 83.1467 67.3276 83.1466 67.3277 83.1464C68.0509 82.3489 69.3257 82.2791 70.1151 82.9944L70.115 82.9944L70.1208 82.9995C70.943 83.7221 71.0115 84.9885 70.2732 85.776Z" fill="#FCC605" stroke="black"/>
<path d="M75.2225 88.9962L75.2225 88.9962L75.2214 88.9934C74.8258 87.9797 75.3424 86.8297 76.3724 86.4277C77.3857 86.0323 78.5351 86.5483 78.9376 87.5774C78.9377 87.5779 78.9379 87.5783 78.9381 87.5787L81.8071 95.0631L81.8071 95.0631L81.8082 95.0659C82.2031 96.078 81.6888 97.226 80.6621 97.6297C79.6417 97.9999 78.4914 97.4754 78.0912 96.4798L75.2225 88.9962Z" fill="#FCC605" stroke="black"/>
<path d="M85.9245 98.5469L85.9245 98.5469L85.9275 98.5454L93.0997 94.9905C93.1002 94.9903 93.1006 94.99 93.1011 94.9898C94.0698 94.5189 95.2698 94.9154 95.7715 95.8877C96.2403 96.8563 95.8428 98.0551 94.8703 98.5557L87.7014 102.109C87.701 102.109 87.7005 102.109 87.7 102.11C86.7321 102.58 85.5332 102.185 85.0308 101.214C84.5554 100.204 84.9676 99.013 85.9245 98.5469Z" fill="#FCC605" stroke="black"/>
<path d="M89.4239 276.113C89.4239 278.025 87.874 279.575 85.962 279.575C84.05 279.575 82.5 278.025 82.5 276.113C82.5 274.201 84.05 272.651 85.962 272.651C87.874 272.651 89.4239 274.201 89.4239 276.113Z" fill="#FCC605" stroke="black"/>
<path d="M98.2523 281.978C98.2523 283.422 96.9134 284.691 95.1335 284.691C93.3535 284.691 92.0146 283.422 92.0146 281.978C92.0146 280.534 93.3535 279.265 95.1335 279.265C96.9134 279.265 98.2523 280.533 98.2523 281.978Z" fill="#FCC605" stroke="black"/>
<path d="M97.3793 272.4C97.3793 274.108 96.2794 275.301 95.134 275.301C93.9886 275.301 92.8887 274.108 92.8887 272.4C92.8887 270.693 93.9886 269.5 95.134 269.5C96.2794 269.5 97.3793 270.693 97.3793 272.4Z" fill="#FCC605" stroke="black"/>
<path d="M356.424 646.113C356.424 648.025 354.874 649.575 352.962 649.575C351.05 649.575 349.5 648.025 349.5 646.113C349.5 644.201 351.05 642.651 352.962 642.651C354.874 642.651 356.424 644.201 356.424 646.113Z" fill="#FCC605" stroke="black"/>
<path d="M365.252 651.978C365.252 653.422 363.913 654.691 362.133 654.691C360.353 654.691 359.015 653.422 359.015 651.978C359.015 650.534 360.353 649.265 362.133 649.265C363.913 649.265 365.252 650.533 365.252 651.978Z" fill="#FCC605" stroke="black"/>
<path d="M364.379 642.4C364.379 644.108 363.279 645.301 362.134 645.301C360.989 645.301 359.889 644.108 359.889 642.4C359.889 640.693 360.989 639.5 362.134 639.5C363.279 639.5 364.379 640.693 364.379 642.4Z" fill="#FCC605" stroke="black"/>
<path d="M57.4239 505.113C57.4239 507.025 55.874 508.575 53.962 508.575C52.05 508.575 50.5 507.025 50.5 505.113C50.5 503.201 52.05 501.651 53.962 501.651C55.874 501.651 57.4239 503.201 57.4239 505.113Z" fill="#6CB9FF" stroke="black"/>
<path d="M66.2523 510.978C66.2523 512.422 64.9134 513.691 63.1335 513.691C61.3535 513.691 60.0146 512.422 60.0146 510.978C60.0146 509.534 61.3535 508.265 63.1335 508.265C64.9134 508.265 66.2523 509.533 66.2523 510.978Z" fill="#6CB9FF" stroke="black"/>
<path d="M65.3793 501.4C65.3793 503.108 64.2794 504.301 63.134 504.301C61.9886 504.301 60.8887 503.108 60.8887 501.4C60.8887 499.693 61.9886 498.5 63.134 498.5C64.2794 498.5 65.3793 499.693 65.3793 501.4Z" fill="#6CB9FF" stroke="black"/>
<path d="M93.4239 815.113C93.4239 817.025 91.874 818.575 89.962 818.575C88.05 818.575 86.5 817.025 86.5 815.113C86.5 813.201 88.05 811.651 89.962 811.651C91.874 811.651 93.4239 813.201 93.4239 815.113Z" fill="#6CB9FF" stroke="black"/>
<path d="M102.252 820.978C102.252 822.422 100.913 823.691 99.1335 823.691C97.3535 823.691 96.0146 822.422 96.0146 820.978C96.0146 819.534 97.3535 818.265 99.1335 818.265C100.913 818.265 102.252 819.533 102.252 820.978Z" fill="#6CB9FF" stroke="black"/>
<path d="M101.379 811.4C101.379 813.108 100.279 814.301 99.134 814.301C97.9886 814.301 96.8887 813.108 96.8887 811.4C96.8887 809.693 97.9886 808.5 99.134 808.5C100.279 808.5 101.379 809.693 101.379 811.4Z" fill="#6CB9FF" stroke="black"/>
<path d="M360.424 272.113C360.424 274.025 358.874 275.575 356.962 275.575C355.05 275.575 353.5 274.025 353.5 272.113C353.5 270.201 355.05 268.651 356.962 268.651C358.874 268.651 360.424 270.201 360.424 272.113Z" fill="#FCC605" stroke="black"/>
<path d="M369.252 277.978C369.252 279.422 367.913 280.691 366.133 280.691C364.353 280.691 363.015 279.422 363.015 277.978C363.015 276.534 364.353 275.265 366.133 275.265C367.913 275.265 369.252 276.533 369.252 277.978Z" fill="#FCC605" stroke="black"/>
<path d="M368.379 268.4C368.379 270.108 367.279 271.301 366.134 271.301C364.989 271.301 363.889 270.108 363.889 268.4C363.889 266.693 364.989 265.5 366.134 265.5C367.279 265.5 368.379 266.693 368.379 268.4Z" fill="#FCC605" stroke="black"/>
</g>
</g>
<defs>
<clipPath id="clip0_457_2696">
<rect width="390" height="839" fill="white"/>
</clipPath>
<clipPath id="clip1_457_2696">
<rect width="390" height="844" fill="white"/>
</clipPath>
</defs>
</svg>
