<svg width="350" height="341" viewBox="0 0 350 341" fill="none" xmlns="http://www.w3.org/2000/svg">
<mask id="path-1-inside-1_98_8569" fill="white">
<path d="M346.829 164.804L313.342 143.848C313.038 143.657 312.763 143.444 312.499 143.214C312.016 142.794 311.606 142.317 311.269 141.796C311.078 141.498 310.898 141.19 310.758 140.865C310.583 140.466 310.449 140.057 310.353 139.637C310.258 139.216 310.201 138.784 310.185 138.352C310.162 137.702 310.235 137.046 310.409 136.406C310.583 135.767 310.848 135.139 311.224 134.55L332.301 101.195C333.273 99.659 333.526 97.943 333.223 96.3616C333.2 96.2495 333.172 96.1373 333.144 96.0252C332.897 95.0158 332.419 94.0625 331.751 93.2662C331.487 92.9521 331.189 92.6717 330.869 92.4082C329.908 91.6175 328.717 91.0735 327.341 90.9221L288.079 86.5986C286.225 86.3967 284.63 85.4546 283.551 84.1087C282.472 82.7573 281.911 80.9964 282.124 79.1459L286.613 39.9534C286.703 39.1852 286.658 38.4393 286.506 37.7384C286.203 36.3364 285.455 35.114 284.433 34.1943C283.821 33.6447 283.113 33.2017 282.338 32.9045C281.562 32.6017 280.731 32.4447 279.866 32.4503C279.147 32.4559 278.411 32.5793 277.681 32.8372L240.385 45.9032C236.868 47.1369 233.014 45.2808 231.784 41.7647L218.768 4.45647C217.099 -0.186734 211.145 -1.52138 207.65 1.98346L179.781 29.938C178.461 31.2614 176.731 31.9232 175 31.9175C173.27 31.9175 171.534 31.2558 170.22 29.938L142.333 1.98907C138.839 -1.51577 132.884 -0.181127 131.216 4.46208L118.2 41.7703C116.975 45.2864 113.121 47.1369 109.599 45.9088L72.3033 32.8428C71.719 32.6353 71.1292 32.5176 70.5505 32.4727C70.4045 32.4615 70.264 32.4559 70.118 32.4559C69.3989 32.4503 68.7023 32.5568 68.0394 32.7699C67.7754 32.854 67.517 32.955 67.2698 33.0671C66.7698 33.297 66.298 33.5887 65.871 33.9307C65.5508 34.1887 65.2531 34.4747 64.9778 34.7831C64.8879 34.884 64.798 34.9906 64.7138 35.1027C64.2924 35.6467 63.9554 36.2579 63.7138 36.9253C63.3824 37.8505 63.2475 38.8767 63.3711 39.959L67.8597 79.1515C68.0731 81.002 67.5114 82.7629 66.4328 84.1143C65.3542 85.4658 63.7588 86.4023 61.9049 86.6042L22.6428 90.9277C21.7159 91.0287 20.8677 91.3091 20.1205 91.7184C19.7554 91.9203 19.4295 92.1558 19.1149 92.4138C18.7947 92.6773 18.497 92.9577 18.233 93.2718C18.1712 93.3447 18.1206 93.4176 18.0644 93.4905C17.7049 93.9559 17.4072 94.4662 17.1824 95.0046C17.042 95.3354 16.924 95.6775 16.8398 96.0308C16.7555 96.3785 16.6881 96.7261 16.66 97.085C16.5476 98.4589 16.8566 99.8945 17.6824 101.207L38.76 134.562C39.1308 135.15 39.4004 135.778 39.5746 136.418C39.7431 137.057 39.8161 137.713 39.7993 138.364C39.7824 138.795 39.7319 139.227 39.6308 139.648C39.5296 140.068 39.4004 140.478 39.2263 140.876C38.9622 141.47 38.6139 142.031 38.1814 142.53C38.0353 142.698 37.8836 142.861 37.7207 143.012C37.3949 143.321 37.0354 143.601 36.6421 143.848L16.0589 156.729L3.15506 164.804C1.84052 165.628 0.930454 166.795 0.441714 168.085C0.245095 168.6 0.11027 169.139 0.0484755 169.683C-0.0133191 170.227 -0.0189368 170.776 0.0484755 171.32C0.278801 173.227 1.31807 175.049 3.16068 176.199L36.6478 197.155C37.041 197.402 37.4061 197.682 37.7264 197.991C37.8893 198.148 38.0409 198.305 38.187 198.473C38.6196 198.978 38.9679 199.538 39.2319 200.127C39.5802 200.918 39.7768 201.77 39.8049 202.639C39.8274 203.29 39.7543 203.946 39.5802 204.585C39.4678 205.012 39.3105 205.432 39.1027 205.841C39.0016 206.043 38.8892 206.245 38.7656 206.441L17.688 239.796C17.4577 240.161 17.2836 240.537 17.1319 240.912C16.9802 241.288 16.8622 241.675 16.7836 242.056C16.7667 242.152 16.7443 242.247 16.7274 242.342C16.6431 242.875 16.6207 243.402 16.6656 243.929C16.851 246.139 18.1318 248.185 20.1261 249.279C20.8733 249.688 21.7215 249.969 22.6485 250.07L61.9105 254.393C65.6238 254.803 68.2922 258.145 67.8709 261.846L63.3824 301.038C62.9779 304.582 65.3429 307.56 68.4495 308.34C68.854 308.441 69.2697 308.508 69.6967 308.53C69.8371 308.536 69.9832 308.542 70.1236 308.542C70.4101 308.542 70.7022 308.519 70.9944 308.474C71.4325 308.413 71.8707 308.306 72.3145 308.155L109.61 295.089C110.268 294.859 110.942 294.735 111.605 294.713C112.492 294.679 113.363 294.825 114.172 295.128C114.981 295.425 115.734 295.879 116.38 296.462C116.7 296.754 116.998 297.079 117.262 297.433C117.526 297.786 117.756 298.173 117.947 298.588C118.043 298.795 118.132 299.008 118.205 299.227L131.199 336.479C132.222 339.412 134.946 341.044 137.704 340.999C139.362 340.971 141.025 340.337 142.345 339.014L170.22 311.059C171.54 309.736 173.27 309.08 174.995 309.08C176.725 309.08 178.455 309.742 179.77 311.059L207.645 339.014C208.302 339.676 209.049 340.164 209.836 340.489C210.622 340.814 211.454 340.982 212.279 340.993C215.038 341.044 217.762 339.406 218.785 336.474L231.778 299.221C232.773 296.367 235.503 294.606 238.385 294.707C239.048 294.73 239.722 294.853 240.379 295.083L277.675 308.149C278.259 308.356 278.849 308.474 279.428 308.519C279.574 308.53 279.714 308.536 279.86 308.536C280.579 308.542 281.276 308.435 281.939 308.222C282.866 307.925 283.714 307.437 284.427 306.792C284.63 306.607 284.826 306.411 285.006 306.203C285.096 306.102 285.186 305.996 285.27 305.883C285.691 305.339 286.028 304.728 286.27 304.061C286.366 303.797 286.444 303.523 286.506 303.242C286.658 302.541 286.703 301.795 286.613 301.027L282.124 261.835C281.697 258.134 284.371 254.791 288.085 254.382L327.347 250.058C328.274 249.958 329.122 249.677 329.869 249.268C331.863 248.174 333.144 246.127 333.329 243.918C333.374 243.396 333.352 242.864 333.268 242.331C333.251 242.236 333.228 242.14 333.211 242.045C333.133 241.658 333.015 241.277 332.863 240.901C332.712 240.52 332.537 240.144 332.307 239.785L324.156 226.887L311.235 206.436C310.864 205.847 310.595 205.219 310.421 204.58C310.246 203.94 310.179 203.284 310.196 202.634C310.224 201.77 310.421 200.918 310.769 200.122C311.033 199.527 311.381 198.966 311.814 198.467C311.96 198.299 312.111 198.136 312.274 197.985C312.6 197.677 312.96 197.396 313.353 197.149L346.84 176.193C351.053 173.558 351.053 167.428 346.84 164.793L346.829 164.804Z"/>
</mask>
<path d="M346.829 164.804L313.342 143.848C313.038 143.657 312.763 143.444 312.499 143.214C312.016 142.794 311.606 142.317 311.269 141.796C311.078 141.498 310.898 141.19 310.758 140.865C310.583 140.466 310.449 140.057 310.353 139.637C310.258 139.216 310.201 138.784 310.185 138.352C310.162 137.702 310.235 137.046 310.409 136.406C310.583 135.767 310.848 135.139 311.224 134.55L332.301 101.195C333.273 99.659 333.526 97.943 333.223 96.3616C333.2 96.2495 333.172 96.1373 333.144 96.0252C332.897 95.0158 332.419 94.0625 331.751 93.2662C331.487 92.9521 331.189 92.6717 330.869 92.4082C329.908 91.6175 328.717 91.0735 327.341 90.9221L288.079 86.5986C286.225 86.3967 284.63 85.4546 283.551 84.1087C282.472 82.7573 281.911 80.9964 282.124 79.1459L286.613 39.9534C286.703 39.1852 286.658 38.4393 286.506 37.7384C286.203 36.3364 285.455 35.114 284.433 34.1943C283.821 33.6447 283.113 33.2017 282.338 32.9045C281.562 32.6017 280.731 32.4447 279.866 32.4503C279.147 32.4559 278.411 32.5793 277.681 32.8372L240.385 45.9032C236.868 47.1369 233.014 45.2808 231.784 41.7647L218.768 4.45647C217.099 -0.186734 211.145 -1.52138 207.65 1.98346L179.781 29.938C178.461 31.2614 176.731 31.9232 175 31.9175C173.27 31.9175 171.534 31.2558 170.22 29.938L142.333 1.98907C138.839 -1.51577 132.884 -0.181127 131.216 4.46208L118.2 41.7703C116.975 45.2864 113.121 47.1369 109.599 45.9088L72.3033 32.8428C71.719 32.6353 71.1292 32.5176 70.5505 32.4727C70.4045 32.4615 70.264 32.4559 70.118 32.4559C69.3989 32.4503 68.7023 32.5568 68.0394 32.7699C67.7754 32.854 67.517 32.955 67.2698 33.0671C66.7698 33.297 66.298 33.5887 65.871 33.9307C65.5508 34.1887 65.2531 34.4747 64.9778 34.7831C64.8879 34.884 64.798 34.9906 64.7138 35.1027C64.2924 35.6467 63.9554 36.2579 63.7138 36.9253C63.3824 37.8505 63.2475 38.8767 63.3711 39.959L67.8597 79.1515C68.0731 81.002 67.5114 82.7629 66.4328 84.1143C65.3542 85.4658 63.7588 86.4023 61.9049 86.6042L22.6428 90.9277C21.7159 91.0287 20.8677 91.3091 20.1205 91.7184C19.7554 91.9203 19.4295 92.1558 19.1149 92.4138C18.7947 92.6773 18.497 92.9577 18.233 93.2718C18.1712 93.3447 18.1206 93.4176 18.0644 93.4905C17.7049 93.9559 17.4072 94.4662 17.1824 95.0046C17.042 95.3354 16.924 95.6775 16.8398 96.0308C16.7555 96.3785 16.6881 96.7261 16.66 97.085C16.5476 98.4589 16.8566 99.8945 17.6824 101.207L38.76 134.562C39.1308 135.15 39.4004 135.778 39.5746 136.418C39.7431 137.057 39.8161 137.713 39.7993 138.364C39.7824 138.795 39.7319 139.227 39.6308 139.648C39.5296 140.068 39.4004 140.478 39.2263 140.876C38.9622 141.47 38.6139 142.031 38.1814 142.53C38.0353 142.698 37.8836 142.861 37.7207 143.012C37.3949 143.321 37.0354 143.601 36.6421 143.848L16.0589 156.729L3.15506 164.804C1.84052 165.628 0.930454 166.795 0.441714 168.085C0.245095 168.6 0.11027 169.139 0.0484755 169.683C-0.0133191 170.227 -0.0189368 170.776 0.0484755 171.32C0.278801 173.227 1.31807 175.049 3.16068 176.199L36.6478 197.155C37.041 197.402 37.4061 197.682 37.7264 197.991C37.8893 198.148 38.0409 198.305 38.187 198.473C38.6196 198.978 38.9679 199.538 39.2319 200.127C39.5802 200.918 39.7768 201.77 39.8049 202.639C39.8274 203.29 39.7543 203.946 39.5802 204.585C39.4678 205.012 39.3105 205.432 39.1027 205.841C39.0016 206.043 38.8892 206.245 38.7656 206.441L17.688 239.796C17.4577 240.161 17.2836 240.537 17.1319 240.912C16.9802 241.288 16.8622 241.675 16.7836 242.056C16.7667 242.152 16.7443 242.247 16.7274 242.342C16.6431 242.875 16.6207 243.402 16.6656 243.929C16.851 246.139 18.1318 248.185 20.1261 249.279C20.8733 249.688 21.7215 249.969 22.6485 250.07L61.9105 254.393C65.6238 254.803 68.2922 258.145 67.8709 261.846L63.3824 301.038C62.9779 304.582 65.3429 307.56 68.4495 308.34C68.854 308.441 69.2697 308.508 69.6967 308.53C69.8371 308.536 69.9832 308.542 70.1236 308.542C70.4101 308.542 70.7022 308.519 70.9944 308.474C71.4325 308.413 71.8707 308.306 72.3145 308.155L109.61 295.089C110.268 294.859 110.942 294.735 111.605 294.713C112.492 294.679 113.363 294.825 114.172 295.128C114.981 295.425 115.734 295.879 116.38 296.462C116.7 296.754 116.998 297.079 117.262 297.433C117.526 297.786 117.756 298.173 117.947 298.588C118.043 298.795 118.132 299.008 118.205 299.227L131.199 336.479C132.222 339.412 134.946 341.044 137.704 340.999C139.362 340.971 141.025 340.337 142.345 339.014L170.22 311.059C171.54 309.736 173.27 309.08 174.995 309.08C176.725 309.08 178.455 309.742 179.77 311.059L207.645 339.014C208.302 339.676 209.049 340.164 209.836 340.489C210.622 340.814 211.454 340.982 212.279 340.993C215.038 341.044 217.762 339.406 218.785 336.474L231.778 299.221C232.773 296.367 235.503 294.606 238.385 294.707C239.048 294.73 239.722 294.853 240.379 295.083L277.675 308.149C278.259 308.356 278.849 308.474 279.428 308.519C279.574 308.53 279.714 308.536 279.86 308.536C280.579 308.542 281.276 308.435 281.939 308.222C282.866 307.925 283.714 307.437 284.427 306.792C284.63 306.607 284.826 306.411 285.006 306.203C285.096 306.102 285.186 305.996 285.27 305.883C285.691 305.339 286.028 304.728 286.27 304.061C286.366 303.797 286.444 303.523 286.506 303.242C286.658 302.541 286.703 301.795 286.613 301.027L282.124 261.835C281.697 258.134 284.371 254.791 288.085 254.382L327.347 250.058C328.274 249.958 329.122 249.677 329.869 249.268C331.863 248.174 333.144 246.127 333.329 243.918C333.374 243.396 333.352 242.864 333.268 242.331C333.251 242.236 333.228 242.14 333.211 242.045C333.133 241.658 333.015 241.277 332.863 240.901C332.712 240.52 332.537 240.144 332.307 239.785L324.156 226.887L311.235 206.436C310.864 205.847 310.595 205.219 310.421 204.58C310.246 203.94 310.179 203.284 310.196 202.634C310.224 201.77 310.421 200.918 310.769 200.122C311.033 199.527 311.381 198.966 311.814 198.467C311.96 198.299 312.111 198.136 312.274 197.985C312.6 197.677 312.96 197.396 313.353 197.149L346.84 176.193C351.053 173.558 351.053 167.428 346.84 164.793L346.829 164.804Z" fill="#6CB9FF" stroke="#111111" stroke-width="4" mask="url(#path-1-inside-1_98_8569)"/>
</svg>
